<svg width="203" height="82" viewBox="0 0 203 82" fill="none" xmlns="http://www.w3.org/2000/svg">
<path d="M12.1937 27.1271C12.4542 26.9729 13.6302 24.0799 13.8228 23.5428C16.8355 15.1839 17.2621 10.8721 23.0894 3.6064C24.2408 2.1704 25.8265 0.157326 27.8916 0.816288C28.0842 0.951508 28.0539 1.18576 28.0766 1.38955C28.5617 5.44997 26.474 10.2512 25.6264 14.1479C24.2371 20.5223 23.7991 27.1443 23.7217 33.711C23.684 36.8687 23.5273 40.8815 24.1597 43.9345C24.2541 44.3954 24.9733 45.9456 25.3055 46.2961L27.6896 47.595L27.1781 48.0463C26.2078 48.0235 25.113 47.4102 24.5164 46.6179C23.499 45.2714 23.0743 42.447 22.9686 40.7635C22.3928 31.4847 23.2347 21.0156 25.2847 12.091C26.087 8.59813 27.565 5.15858 27.314 1.49429C27.1007 1.49429 26.8779 1.46382 26.6646 1.50382C25.0129 1.81616 20.3541 8.64955 19.3914 10.3331C16.5977 15.2163 16.0446 21.0746 13.7661 25.9578C12.4674 28.7403 11.1366 28.8736 9.66612 26.034C7.44433 21.7431 7.44622 11.7825 7.13098 6.72599L6.56845 2.637C6.49295 3.5645 6.16071 4.5358 6.01536 5.40807C5.65482 7.56398 5.78884 9.37517 5.62084 11.4759C4.83746 21.3412 2.84218 30.9514 1.66428 40.7597C1.4623 42.4432 1.5529 44.2754 1.23766 46.0333C1.19047 46.3018 0.737429 48.2939 0.626056 48.2653C-0.489559 47.7835 0.206993 47.1341 0.299489 46.418C1.32072 38.4419 2.25134 30.4429 3.37451 22.5201C3.5746 21.1051 4.11448 19.3643 4.28814 17.9264C4.89409 12.9271 4.52033 7.88965 5.63405 2.9322C5.81905 2.10564 7.04792 -1.65196 7.49908 0.842951C7.78411 2.4237 7.78789 4.65579 7.89549 6.33747C8.23149 11.5292 8.19374 18.1036 9.44338 23.0305C9.64347 23.819 11.0422 27.8166 12.1956 27.131L12.1937 27.1271Z" fill="black"/>
<path d="M60.5131 69.4625C59.8203 64.0898 57.2531 59.858 53.1946 56.4527C50.1177 53.8721 45.8685 52.2552 44.5547 48.0824C44.4811 47.5758 45.2418 46.5492 45.4778 45.9455C46.8274 42.4888 47.7637 38.7864 47.6939 35.0441C47.6882 34.7298 47.5561 33.4805 47.4485 33.2938C47.0917 32.6711 46.0912 32.972 45.6325 33.3643C45.2399 33.6976 45.0096 34.3527 44.8227 34.8289C44.2357 36.3049 43.5561 39.7178 43.3617 41.3423C43.1295 43.3001 43.4353 45.7246 43.4372 47.7205C43.3032 48.3681 41.3872 50.1678 40.7982 50.1697C39.7506 50.1735 39.8317 48.5852 39.7204 48.0252C39.4202 46.5093 39.1238 44.399 39.0106 42.8469C38.8709 40.9519 39.2805 38.9979 38.65 37.1562L39.3579 36.8343C39.6184 35.7926 38.8105 34.9888 38.6123 34.0309L37.7723 34.1851C37.4665 34.6232 38.1989 38.7388 38.2612 39.6092C38.4858 42.7212 38.2782 46.3931 39.054 49.4555C39.1994 50.0269 39.7034 50.7335 40.2829 50.8839C41.9119 51.3086 43.6392 48.6214 44.0998 49.027C45.3834 52.836 49.4117 54.4473 52.3017 56.826C57.5362 61.1378 59.3956 65.3506 59.9411 72.1307C60.2884 76.4482 58.0044 78.3603 54.2781 79.724C47.1144 82.3427 38.6444 81.2019 31.7751 78.2784C28.4113 76.8443 24.6907 74.9189 22.5765 71.8678C21.8743 71.7574 21.678 72.1231 22.0253 72.7077C22.2197 73.0353 23.9998 74.7437 24.3962 75.0693C32.0941 81.4133 48.3225 84.6376 57.0945 79.3316C61.0548 76.9358 61.0699 73.7857 60.5131 69.4625ZM44.1186 45.6827C43.8959 43.5992 44.6944 37.0781 45.5325 35.1641C45.6231 34.9584 46.3064 33.8214 46.4593 33.8214C46.7689 34.1071 46.9294 34.6575 46.9388 35.0612C46.9992 37.5638 46.1762 40.51 45.742 42.9802L44.4754 46.3645C44.2017 46.3988 44.1375 45.8655 44.1186 45.6827Z" fill="black"/>
<path d="M125.204 55.8719C125.423 55.6205 127.121 57.5535 127.376 57.7688C130.453 60.3437 134.321 62.2786 138.447 61.5226C141.553 60.9531 144.443 57.0127 144.048 53.8912C143.306 48.0253 140.909 44.9933 137.183 40.6605C136.875 40.3025 135.01 38.756 135.389 38.3827C135.654 38.3599 135.892 38.3618 136.139 38.4817C137.256 39.0207 142.002 45.2961 142.746 46.6521C144.28 49.4556 145.462 54.1349 144.329 57.186C141.672 64.3412 133.249 63.2233 128.16 59.4542C127.625 59.0581 125.643 57.3917 125.383 56.9308C125.173 56.5594 125.166 56.287 125.205 55.8757L125.204 55.8719Z" fill="black"/>
<path d="M128.89 37.04C127.323 36.2325 126.009 36.3334 124.403 36.0497C123.6 35.9087 123.161 35.3717 122.332 35.5773C121.12 35.8764 119.642 38.2399 119.557 39.453C119.527 39.8758 120.023 43.1364 120.163 43.5554C120.897 45.757 125.033 46.1512 126.896 45.5056C130.585 44.2296 133.233 39.2778 128.89 37.04ZM126.411 44.8257C124.878 45.2313 121.513 44.9533 120.916 43.1764C120.612 42.266 120.716 39.8644 120.907 38.8988C121.381 36.4953 125.094 36.2554 125.394 38.9502C127.142 39.0359 125.286 36.9429 125.392 36.861C127.485 37.4209 130.328 37.7275 130.273 40.5462C130.239 42.3746 128.093 44.3819 126.411 44.8257Z" fill="black"/>
<path d="M87.6683 67.8493C86.1581 68.3883 86.4677 65.5392 86.5395 64.5259C87.1586 55.7404 87.9193 47.9529 87.1001 39.0493C87.0189 38.1751 85.9146 34.3794 87.1964 34.3832L87.6702 34.6803C86.9189 35.5831 87.5739 35.8706 87.6588 36.5867C88.748 45.6656 88.1553 54.8624 87.472 63.9489C87.3776 65.2154 87.4606 66.6095 87.6683 67.8531V67.8493Z" fill="black"/>
<path d="M167.073 39.8987C166.809 38.7788 167.715 38.2894 168.012 37.3428C164.727 35.2936 161.748 39.1845 161.412 42.2736C161.152 44.6752 161.095 47.9129 164.004 48.4081C165.701 48.6956 168.45 48.1338 170.124 47.6348C170.711 47.4596 173.673 45.9779 173.86 46.1741C173.89 46.2045 173.894 46.7587 173.82 46.894C173.692 47.1301 170.936 48.2062 170.46 48.3528C167.995 49.1146 163.068 50.1754 161.327 47.6862C161.129 47.4025 160.697 46.4293 160.65 46.0865C160.157 42.3765 161.246 36.5772 165.667 35.9183C166.569 35.783 168.657 36.084 168.782 37.1333C168.918 38.2741 168.506 38.1237 168.123 38.7712C167.836 39.255 167.923 40.0549 167.072 39.8968L167.073 39.8987Z" fill="black"/>
<path d="M151.157 45.3932C149.235 44.9038 147.212 43.8144 147.869 41.4547C149.588 40.4567 151.157 41.6185 153.033 41.4318C153.573 41.3785 155.132 40.99 155.391 40.5786C156.539 38.7598 152.896 38.0837 151.701 38.0018C148.403 37.7752 146.912 38.5294 146.878 42.0832C146.866 43.363 147.083 43.9344 148.024 44.7514C149.911 46.3931 153.06 46.6312 155.476 46.7435C156.184 46.7759 156.909 46.7607 157.613 46.7169L157.832 45.9855C155.638 45.7399 153.296 45.9398 151.157 45.3932ZM154.611 39.5369L154.617 40.2701C153.983 40.2301 153.445 40.611 152.833 40.6643C151.893 40.7481 151.087 40.3977 150.191 40.2853C149.792 40.2339 148.052 40.4529 148.029 39.9977C149.3 37.7523 152.618 39.0645 154.611 39.5369Z" fill="black"/>
<path d="M178.013 27.8279C178.126 26.7861 178.789 25.3958 178.974 24.3293L180.087 24.3103C180.344 25.1597 179.614 25.0492 179.413 25.6282C179.136 26.4395 178.83 28.4621 178.768 29.3496C178.711 30.1571 178.647 36.0173 178.849 36.2992C180.25 37.2343 181.994 36.5944 183.383 36.8629C184.006 36.9829 184.382 37.6381 183.58 37.8152L178.957 37.4305C179.202 38.3199 179.03 39.2874 179.155 40.1768C179.334 41.4471 179.87 43.224 180.399 44.4353C180.622 44.9457 181.348 45.9246 181.411 46.2674C181.554 47.0559 180.461 46.3017 180.216 45.9379C178.606 43.5344 178.607 40.1101 178.03 37.36C176.918 36.5163 175.487 37.2153 174.434 36.5753C174.354 35.505 177.341 36.2992 178.013 36.2897C178.228 33.5967 177.724 30.4676 178.013 27.8298V27.8279Z" fill="black"/>
<path d="M193.292 37.0496C193.311 36.7029 193.333 36.0821 192.824 36.0935L190.879 37.0877L190.847 39.1921C191.053 39.3426 191.259 39.6511 191.457 39.7635C192.178 40.1711 194.391 40.5862 195.274 40.6586C197.245 40.8205 202.575 39.7102 201.956 43.2145C201.405 46.3322 196.845 48.0577 194.508 49.5927C193.645 49.5432 193.834 49.2765 194.334 48.8404C196.057 47.3377 198.534 46.8007 200.086 44.9419C203.886 40.392 197.154 41.6109 194.727 41.3995C194.179 41.3519 192.631 41.11 192.116 40.99C190.523 40.6186 189.662 39.1483 189.907 37.5352C190.123 36.1202 192.888 34.7965 194.156 35.5126L194.392 35.9659C194.145 36.4782 194.004 37.1981 193.294 37.0477L193.292 37.0496Z" fill="black"/>
<path d="M88.6219 33.2615L88.9881 34.3851C87.3931 34.3261 87.1439 33.3624 88.4822 32.4482C90.8909 30.7989 95.7498 31.0732 97.4109 33.789C98.1981 35.0765 99.3213 38.7046 98.7002 40.0872C98.5171 40.4929 97.6507 41.0585 97.2316 41.268C96.4841 41.6413 90.234 43.9858 89.8546 43.8848L89.5563 43.4201C89.6413 42.9954 94.1868 41.5804 94.9626 41.2623C97.0032 40.4282 98.4605 40.4415 98.0339 37.7218C97.8602 36.6172 96.9069 34.2271 96.0631 33.4348C95.9102 33.29 94.9796 32.6387 94.8305 32.5873C94.2227 32.3778 91.1344 32.3454 90.4209 32.4997C89.7772 32.6387 89.2316 33.0367 88.6257 33.2615H88.6219Z" fill="black"/>
<path d="M110.866 43.8925C109.82 44.1686 109.286 43.483 109.163 42.4717C108.988 41.0243 108.98 37.5638 109.369 36.204C109.569 35.5069 109.996 34.6746 110.3 34.0081C108.559 34.4994 106.857 34.0633 105.126 33.8043L104.737 34.9546C103.999 34.5204 103.784 33.5224 104.646 33.1548C106.098 32.534 108.235 34.2214 110.175 33.0234C110.53 32.8044 111.466 31.6274 111.914 32.2864C112.361 32.9453 110.919 34.5204 110.608 35.1698C109.713 37.0286 109.739 40.6358 110.111 42.6603C110.219 43.2526 111.057 43.1269 110.868 43.8925H110.866Z" fill="black"/>
<path d="M138.211 27.9193L137.648 27.925L137.837 28.8735C136.631 29.1192 136.646 27.6679 136.706 26.7823L137.95 26.9556L138.211 27.9193Z" fill="black"/>
</svg>
