<?xml version="1.0" encoding="UTF-8"?>
<svg id="Layer_2" data-name="Layer 2" xmlns="http://www.w3.org/2000/svg" viewBox="0 0 1055.61 113.74">
  <g id="Layer_1-2" data-name="Layer 1">
    <g id="graphic_journey" data-name="graphic journey">
      <path d="M47.95,65.58v2.46s-2.47-.62-2.47-.62c-.24-1.79.06-3.58,1.99-4.16,2.65-.8,17.23-.44,20.53.12,6.28,1.07,10,3.59,9.55,10.22-1.67,24.47-39.2,42.74-60.31,31.91-32.51-16.68-11.8-60.48,3.07-82.94C23.67,17.53,36.13,1.71,41.41.54c2.1-.46,9.09-1.67,7.77,2.23-6.88-1.08-10.86,1.36-15.43,6.13C17.96,25.4-4.19,65.2,3.89,88.07c5.03,14.25,19.5,19.51,33.62,18.17,14.73-1.4,40.46-18.35,37.55-35.14-.35-2.03-4.09-5.53-5.55-5.53h-21.56Z"/>
      <path d="M147.73,89.59c-5.65-6.41-8.59-10.89-13.53-17.26-.91-1.17-1.94-2.34-3.06-3.46-.56-.57-1.14-1.12-1.75-1.66-.61-.54-1.23-1.07-1.87-1.59-.9-.72-1.84-1.42-2.8-2.08s-1.95-1.29-2.96-1.88c-.29-.16-.58-.33-.87-.49-.58-.32-1.17-.63-1.76-.92-.59-.29-1.19-.57-1.79-.83-.9-.39-1.8-.74-2.71-1.05-2.12-.72-4.24-1.21-6.32-1.42.83-1.55,1.91-2.93,3.18-4.17.63-.62,1.31-1.22,2.03-1.78.53-.42,1.09-.83,1.66-1.23.38-.27.77-.53,1.16-.78.4-.26.8-.51,1.2-.75,1.22-.73,2.48-1.44,3.74-2.13.42-.23.85-.46,1.27-.69.42-.23.85-.45,1.27-.68.63-.35,1.26-.69,1.88-1.03.83-.46,1.64-.93,2.44-1.4.19-.12.39-.24.59-.36.39-.24.77-.49,1.15-.73,1.32-.87,2.54-1.79,3.63-2.79.15-.14.3-.29.45-.44,3.3-3.25,5.08-7.38,3.69-13.44-.86-3.75-8.3-12.06-11.66-14.2-.23-.15-.6-.34-1.06-.57-.18-.09-.38-.18-.59-.28-.11-.05-.21-.1-.32-.15-.45-.2-.94-.42-1.44-.64-.13-.05-.26-.1-.38-.16-.26-.11-.52-.22-.79-.33-.26-.11-.52-.21-.78-.32-.39-.15-.78-.31-1.15-.45-.37-.14-.73-.27-1.06-.39-.22-.08-.43-.15-.63-.22-.69-.23-1.23-.37-1.47-.37h-20.33c.3-1.07.11-2-.35-2.45-.09-.09-.2-.16-.31-.21-.27-.11-.6-.1-.96.09-.21.11-.43.28-.66.52-.06.07-.12.14-.19.22,3.86,20.26,5.54,40.8,4.97,61.59-.23,8.57-2.25,17.95-1.32,27.11.13,1.31.18,2.58.95,3.42.14.16.3.29.49.41.11.07.23.13.36.19.21.1.45.18.72.24v-38.79c0-.32.11-.57.3-.77.15-.15.36-.28.61-.37.23-.08.5-.14.8-.17.81-.1,1.85-.03,2.91.11.71.1,1.43.23,2.11.37h.01c.18.04.34.07.51.11.29.07.56.13.83.19.1.02.19.05.29.07.19.05.37.09.53.14.41.11.76.21,1,.27,5.57,1.5,9.73,3.46,13.04,5.75.51.35,1,.71,1.47,1.08.24.19.47.37.7.56.52.43,1.02.87,1.5,1.32.35.33.69.66,1.02,1,4.11,4.18,6.85,9.04,10.5,14.02.3.39.6.79.9,1.18.14.2.3.41.46.61.32.4.64.8.96,1.19.16.2.33.4.5.61.52.6,1.04,1.2,1.59,1.79h0c.38.41.76.8,1.15,1.2.78.8,1.61,1.59,2.5,2.37.08.07.15.14.22.2.15.14.28.29.42.43.13.14.25.29.39.43.12.14.25.29.38.42.26.27.52.51.82.69.54.33,1.18.48,2.08.29.5-2.28-1.24-2.93-2.46-4.31ZM100.98,54.44l-3.71-45.42c3.14-1.87,5.19-.12,7.93-.06,8.2.19,16.25-.75,22.88,5.46,2.83,2.66,8.54,11.06,8.52,14.85-.05,9.06-17.97,14.69-24.24,19.43-.55.42-.75,1.89-1.62,2.62-2.91,2.44-5.87,3.9-9.76,3.12Z"/>
      <path d="M348.53,56.96c1.15-12.66,2.48-25.37,6.12-37.62l-3.67.05,6.17-6.76c-1.29,14.56-6.43,28.74-6.22,43.63l7.45,1.94c-1.18,3.93-4.63.51-7.39,1.22-1.35,5.84-1.61,21.29,1.87,25.89,1.35,1.78,4.47.48,3.05,6.13-2.41,2.79-7.39-10.96-7.39-11.7v-20.32l-34.43.06c-2.71,11.92-4.68,23.3-3.75,35.64l4.31-6.15c.95-.18.74,1.12.62,1.85-.8,5.2-6.8,10.54-7.45,2.51-.88-10.81,2.25-22.55,3.83-33.22l-2.54-.7v-2.46s3.54-.11,3.54-.11l5.08-21.44V15.09c2.61-.1,2.35-.57,2.46,1.83.7,14.19-2.41,26.3-4.93,40.04h33.26Z"/>
      <path d="M680.39,8.96c-4.5-.4-20.32,2.66-24.35,5.06-1.11.66-12.33,9.31-12.82,9.96-1.25,1.66-8.2,18.51-9.52,21.9-3.13,8.08-5.89,19.88.96,26.74,8.35,8.36,30.44,5.23,40.65,1.3,16.34-6.28,24.36-25.69,25.51-42.33.79-11.55-9.26-21.65-20.43-22.63ZM687.3,63.74c-8.23,10.62-40.51,16.59-50.56,7.43-4.46-4.07-4.61-12.66-3.42-18.29.67-3.19,7.86-19.38,9.8-22.22,1.78-2.62,4.5-3.18,5.35-4.46.41-.62-.4-1.99-.01-2.54,1.82-2.56,7.76-2.32,10.49-1.19-1.99-4.2-10.77-.94-2.89-5.96,5.58-3.55,20.13-5.73,26.62-4.81,6.74.96,14.63,8.31,15.66,15.12,1.34,8.87-5.46,29.73-11.04,36.92Z"/>
      <path d="M553.02,16.31l-2.54.69c.01,8.55,10.5,17.04,18.5,12.19.86-.52,4.09-3.57,4.44-4.27.81-1.63-.21-2.22-.34-3.34-.96-8.19,4.66-4.18,4.53-1-.04,1.15-1.04,2.34-.94,3.58.37,4.28,19.74,19.82,23.72,25.46,5.98,8.48,9.21,32.77-.62,38.68s-42.12-1.12-47.81-11.2c-.74-1.31-2.47-4.2-.79-5.37,3.51,7.19,9.12,10.38,16.63,12.93,6.73,2.28,27.73,5.89,32.67.64,4.24-4.51,3.76-21.98,1.77-27.68-3.3-9.44-10.91-13.55-17.23-19.72-3.82-3.74-6.76-7.91-10.44-11.73-9.38,14.04-28.48,3.57-25.25-12.31l3.69,2.45Z"/>
      <path d="M805.55,58.2c4.2,6.56,11.89,8.54,17.86,13.54,3.02,2.52,5.65,5.95,8.62,8.62,2.46,2.21,6.49,2.66,5.54,7.38-.56.57-5.53-2.31-5.87-2.75-.6-.79-.4-2.62-1.45-4.07-5.22-7.19-17.95-13.42-25.34-19.07-.93-.71-1.81-1.34-3.06-1.22-.01-4.99,6.2-4.39,9.51-5.88,2.9-1.3,11.22-7.81,11.5-10.76.56-5.92-12.89-15.99-18.14-16.32-1.73-.11-5.94,1.25-6.43,2.92-1.44,4.86.09,20.51-.1,26.99-.07,2.28-1.18,4.57-1.32,7.3-.26,4.86-.53,10.98,1.29,15.44-5.24.37-3.99-9.09-3.73-12.96.54-8.01,3.73-25,2.51-31.99-.53-3.01-3.22-2.32-1.06-5.94,5.08-8.53,19.2-.39,24.39,4.78,3.19,3.17,5.35,8.53,3.16,12.88-.32.64-8.55,8.82-9.28,9.2-2.17,1.14-6.07,1.49-8.6,1.88Z"/>
      <path d="M913.95,12.63c-1.98,8.2-4.77,15.69-6.08,24.09-1.7,10.95-3.65,23.57-4.92,34.49-.65,5.52,1.91,11.82-3.16,15.3-4.54-4.35-8.12-6.37-11.48-11.91-4.8-7.91-7.21-16.59-11.07-24.65-3.88-8.1-8.75-15.65-12.56-23.77,5.06-.93,3.11,1.27,4.67,4.55,2.74,5.74,6.36,10.97,9.12,16.76,5.23,10.96,8.55,25.43,18.24,33.49,1.24,1.03,1.58,2.36,3.69,1.84-.55-12.31,2.92-24.33,4.85-36.4,1.66-10.36,2.24-20.14,5.04-30.67.57-2.14,1.05-3.49,3.66-3.11Z"/>
      <path d="M987.86,16.32c-1.26,1.14-3.32-1.91-4.52-2.25-4.73-1.33-14.52-.96-19.42-.13-2.19.37-10.36,2.32-11.23,3.58l.69,2.49h-7.4c2.2,17.7-10.36,32.9-8.55,50.43,11.09,4.59,19.76-4.82,30.2-6.01,3.26-.37,9.03-.47,12.23-.09,1.71.21.42,4.94-1.84,4.93l-.73-2.52c-3.59.33-7.35-.34-10.92.12-5.72.75-11.94,5.33-17.37,6.03-11.22,1.46-15.41.4-14.02-11.55,1.42-12.11,9.81-24.96,9.88-38.26.01-1.88-2.06-6.62.47-6.65.53,0,1.73,1.42,3.45.95,1.05-.29,1.93-1.6,3.04-2.02,8.93-3.38,20.73-5.34,30.22-3.7,1.45.25,8.08,2.61,5.82,4.65Z"/>
      <path d="M1016.2,12.63l-2.52,3.18c.98,10.58,2.95,24.9,14.43,28.7,3.74.6,18.45-22.01,23.19-25.73,2.38-1.87,2.42-1.53,4.31.62-1,2.02-3.58,1.34-4.63,2.13-2.41,1.8-8.84,11.93-11.37,15.11-1.74,2.18-4.33,3.99-6.16,6.16l6.15,2.45-10.53,3.02c-6.37,8.24-14.36,15.42-20.8,23.54-.86,1.09-4.15,5.86-4.39,6.69-.41,1.42,3.51-.25,3.69,1.22l-6.15,1.85c-.37-1.83.35-3.01.97-4.56,1.89-4.72,12.28-16.1,16.27-20.68,2.66-3.05,5.92-5.61,8.62-8.63l-8.63-7.37c-3.23-4.16-8.64-21.16-7.24-25.74.67-2.19,2.88-2.19,4.79-1.98Z"/>
      <path d="M736.56,21.25c.67.72-3.57,6.87-4.3,8.62-3.32,7.95-6.51,20.41-6.87,28.95-.26,5.98,2.48,14.86,9.27,15.44,9.32.79,16.72-1.56,24.52-6.4,14.4-8.94,14.79-19.74,11.89-35.53,2.28.41,2.12,2.49,2.6,4.17,5.47,19.01-6.81,31.99-23.56,38.31-9.26,3.5-24.22,3.67-25.79-8.68-1.38-10.84,1.22-25.18,5.14-35.37.45-1.18,4.88-11.91,7.11-9.51Z"/>
      <path d="M455.62,23.79c.58,3.64-.16,7.25-3,9.76l1.84-6.77c-2.75-4.08-8.02.28-10.99,2.55-7.53,5.76-15.79,19.97-19.17,28.86-4.06,10.68-6.89,24.84,1.81,33.89,5.86,6.09,13.77,5.81,21.64,5.57l11.65-1.9c-12.88,9.59-38.29,4.02-40.58-13.61-2.28-17.58,11.83-50.08,28.25-57.82,3.14-1.48,5.34-2,8.56-.52Z"/>
      <path d="M174.84,69.27h27.1v2.46h-28.33l-6.17,27.09c-2.22.23-1.3-4.15-1.14-5.45,2.54-19.93,10.26-42.03,13.5-62.85.16-1.06,1.01-18.66,3.65-15.43-1.64,18.24-5.76,36.12-8.62,54.18Z"/>
      <path d="M187.15,13.85c-.28,4.93,3.72,8.29,5.56,12.31,8.68,18.94,13.69,39.13,19.96,58.86,1.29,4.06,10.63,26.6,8.97,28.59-2.65.47-2.49-.24-3.07-2.42-7.01-26.55-16.16-58.48-27.49-83.4-1.71-3.75-5.91-8.33-6.42-12.06-.33-2.42.51-1.97,2.48-1.86Z"/>
      <path d="M399.03,17.56c.83,16.04-1.36,31.88-4.84,47.49l-.7,17.76c-2.39-1.57-1.7-3.24-1.87-5.5-.91-12.12,4.05-25.1,4.98-36.93.53-6.74-.38-14.12-.04-20.98.1-2.01,1.08-3.46,2.46-1.83Z"/>
      <path d="M948.45,42.18l-.61,2.48-3.1-3.71c10.96-2.98,26.09,1.22,36.17-3.89,2.25-1.14,1.65-3.51,2.64-3.51,3.06,0,1.79,1.32,1.76,3.59l-14.08,5.03h-22.79Z"/>
      <path d="M858.52,74.2c-3.36.49-2.38-.54-2.46-3.06-.39-12.63,4.89-24.64,6.11-37.06.37-3.75-2.76-7.65,1.27-9.13,2.23,16.87-6.54,32.64-4.92,49.25Z"/>
      <path d="M245.81,20.78c.99.82,5.66,0,7.79.31,4.81.7,17.14,8.8,21,12.25s7.61,12.88,8.01,17.97c.28,3.61-4.87,7.07-7.4,9.74-1.16,1.22-1.67,3.01-3.04,4.35-4.77,4.62-12.77,5.26-19.12,4.89-.37-1.52,2.36-2.05,3.34-2.19,2.78-.4,5.55.05,8.13-.5,5.69-1.21,10.69-10.89,15.04-14.53,1.23-6.56-2.31-14.16-7.43-18.48-2.29-1.93-13.16-9.82-15.32-10.54-3.55-1.19-7.52-.3-11.16-.55-1.03,4.49,1.07,8.95,1.27,12.9.82,15.81.81,33.73,3.66,49.29.37,2.02,2.12,2.96,2.46,4.93.73,4.15-.52,9.79,0,14.17-5.46-3.64-3.03-11.39-3.65-16.66-2.38-20.17-4.23-40.25-6.11-60.38-.29-3.14-.91-7.06,1.77-9.16,1.17-.23.21,1.75.77,2.21Z"/>
    </g>
  </g>
</svg>