<?xml version="1.0" encoding="UTF-8"?>
<svg id="Layer_2" data-name="Layer 2" xmlns="http://www.w3.org/2000/svg" viewBox="0 0 506.25 101.59">
  <g id="Layer_1-2" data-name="Layer 1">
    <g id="growth">
      <path d="M331.32.27c2.18,5.83-3.22,6.87-3.7,8.24-1.67,4.85-1.52,12.67-2.73,17.96-2.54,11.1-8.15,26.11-12.33,36.93-2.94,7.61-5.74,13.35-11.42,19.36-2.31.03-10.67-25.4-11.41-29.22-2.72-14.02-2.04-28.61-5.54-42.49-.31-1.22-.45-3.7-2.13-3.4-3.17,25.64-13.17,49.74-19.64,74.61-.36,1.39-.93,3.89-2.53,1.74-2.41-6.69-7.06-12.13-10.1-18.85-5.45-12.05-11.39-31.82-14.27-44.84-.72-3.25-.74-6.91-1.5-10.19,5.09-.06,2.3,2.92,2.71,5.2,1.73,9.7,6.14,24.35,9.26,33.94,3.27,10.06,7.95,22.04,15.13,29.82,4.5-16.41,10.36-32.42,14.46-48.97,2.07-8.38,2.58-17.6,5.49-25.3.63-1.67,1.65-2.41,3.46-2.08,1.17,8.48,3.67,16.85,4.85,25.33s.93,17.44,2.89,26.66c1.79,8.4,5.38,16.58,8.89,24.35,3.37-2.69,5.3-6.34,7.01-10.23,3.44-7.83,7.59-19.68,10.24-27.94,4.19-13.07,6.08-26.57,9.19-39.91l3.74-.73Z"/>
      <path d="M211.87,37.79c-.84-11.68-6.18-25.22-14.18-33.86-2.93-3.16-4.93-4.84-9.66-3.43-1.79.53-4.37,3.25-6.95,4.12-3.73,1.25-6.34.67-10.33,3.22-14.04,8.97-22.51,41.29-20.45,57.02,1.33,10.18,10.51,25.11,21.56,26.47,12.46,1.54,31.4-12.42,37.34-22.88,3.68-6.47,3.22-22.85,2.67-30.66ZM195.84,79.72c-8.57,7.06-21.31,13.04-31.75,6.44-1.22-3.36-4.37-5.05-6.28-7.88-8.78-13.01-5.39-30.86-.82-44.79.65-1.98,3.76-11.56,4.56-12.12.76-.52,2.39.02,3.41-.2l.1-4.87,3.67-.02c-2.94-7.5,7.57-7.6,12.35-9.2,10.54-3.52,8.33-11.08,18.22,2.63,7.91,10.97,10.55,21.99,11.33,35.47.95,16.34-2.34,24.29-14.79,34.54Z"/>
      <path d="M123.88,85.11c-3.49-6.18-14.12-19.39-19.8-23.31-4.26-2.94-10.42-1.88-14.19-5.5,6.22-3.89,11.17-9.64,16.62-14.16,2.49-2.07,9.27-4.8,9.24-7.96-.05-4.25-7.58-14.25-11.94-15.21-7.61-1.69-15.2.97-22.56,2.24l-1.22-3.7c.15,2.64-.27,5.4-.05,8.04,1.42,16.94,1.68,39.36,5.05,55.3.41,1.94,1.31,6.02,3.01,6.84,3.97,1.93.1-4.21-.08-4.85-.86-3.1-4.21-22.23-3.02-23.47,4.3-.16,13.18,1.3,16.7,3.64,6.47,4.29,17.13,17.74,20.92,24.71.4.74,1.11,4.68,3.04,2.44,1.17-1.37-1.05-3.87-1.72-5.05ZM84.95,55.68l-2.36-31.91c11.44-3.31,18.39-7.6,26.99,2.97,8.04,9.88-.28,9.93-7.03,15.76-.61.52-.75,1.92-1.62,2.63-4.96,4.05-9.74,8.59-15.98,10.55Z"/>
      <path d="M31.98,13.81c-2.38.47-4.52-1.5-6.74-1.29-4.4.43-8.64,7.91-10.73,11.53-6.23,10.77-10.73,23.6-12,36.03-1.1,10.75,4.27,32.86,15.02,37.76,4.18,1.9,8.61.06,12.83,1.83,8.66-.05,23.6-6.77,25-16.31,2.3-15.68-2.82-21.2-18.44-16.59v-3.69c8.71-.18,19.3-1.56,20.91,9.27,1.84,12.35-2.62,20.43-13.48,25.87-8.7,4.36-25.33,5.24-32.72-1.86-6.3-6.06-10.12-19.45-11.37-28.03-1.74-11.93,5.97-34.49,12.24-45.06,4.07-6.85,11.59-19.01,19.49-9.46Z"/>
      <path d="M491.47,37.21c-8.07-.91-16.19,3.06-23.99,3.73-4.09.35-16.9-1.02-19.19.52-2.17,1.45-.9,8.35-1.1,11.21-.15,2.07-1.4,3.48-1.29,5.48l3.68-.62c-1.4,2.18-1.53,5.16-2.15,7.75-.54,2.26.43,3.24-2.77,2.72.23-6.75-.32-13.6-.04-20.35.36-8.84,2.02-17.71,1.32-27.11-.34-4.52-1.9-7.83-2.85-11.96-.51-2.2-1.72-2.7.95-4.61l4.22,16.71.08,17.77c6.99-.42,14.55.61,21.47-.09s14.41-4.29,21.64-3.61c.56-1.52-1.23-2.86-1.23-3.08V3.96c2.14-.29,1.21,2.82,1.23,4.31.15,8.96,1.61,17.5,1.23,26.48,4.95.33,10.34-1.71,13.55,3.08l-13.55-.62,1.19,21.44,2.56,1.46-.05,6.66c-5.21.09-3.23-4.85-3.71-7.98-.19-1.2-1.21-2.27-1.21-2.48v-19.09Z"/>
      <path d="M418.79,5.2c-.51,2.3-2.35,2.32-4.25,2.51-9.96,1.01-20.62-1.64-29.65-1.37-1.96.06-10.35,1.39-11.13,2.48-1.14,1.59,2.06,19.05.65,22.89,1.92,12.06,2.31,23.85,4.74,35.91.48,2.4-.22,1.57-2.24,1.62-2.85-19.56-5.06-39.33-4.93-59.12-7.64.91-15.05,1.62-22.8,1.24-2.01-.1-3.46-1.08-1.83-2.46,5.31-.44,11.37.63,16.57-.06,4.45-.59,9.74-3.24,14.81-3.67,12.83-1.08,27.08.86,40.07.04Z"/>
    </g>
  </g>
</svg>