<?xml version="1.0" encoding="UTF-8"?>
<svg id="Layer_2" data-name="Layer 2" xmlns="http://www.w3.org/2000/svg" viewBox="0 0 537.81 99.88">
  <g id="Layer_1-2" data-name="Layer 1">
    <g id="HEADING">
      <path d="M85.64,14.9c-.95,1.07,1.93,13.28,2.11,15.76.48,6.37-.34,13.27,0,19.69,4.21-1.68,8.26-2.08,12.81-1.75,1.56.11,2.87.76,4.33.88,2.09.17,9.32-.99,9.34,1.95l-.67,1.09c-2.91-1.66-6.39-.49-9.55-.85-1.14-.13-1.87-.76-3.01-.89-4.61-.53-9.07.16-13.18,2.24-.78,2.5.64,4.93.8,7.08.42,5.58.36,11.38.41,16.87s-.16,10.58.21,15.85c2.3,1.17,5.06.92,7.36,1.31s4.59,1.11,6.97,1.27c8.31.57,17.06-.59,25.39-.02l-.42-1.46c2.28-2.25,2.88,1.84,2.59,3.63-2.24-.02-4.5.02-6.74.02-4.26,0-8.71-.01-12.98-.04-7.3-.04-15.81-.42-22.9-2.25-.53-.14-1.04-.32-1.41-.76-.64-8.28.11-16.63-.19-24.92-.16-4.35-1.13-9.25-1.33-13.39-.41-8.17.67-17.09.03-25.14-.46-5.82-3.21-12.27-2.17-18.16.1-.56.44-1.26,1.05-1.36,2.71,1.02,5.08-.26,7.44-.56,12.32-1.54,26.58-2.03,39-1.37,1.25.07,8.71.78,8.87,1.54-.99,2.95-5.16.78-7.57.63-11.7-.73-28.78-.51-40.25,1.42-2,.34-4.34,1.21-6.34,1.67Z"/>
      <path d="M257.62,75.32c-.97.96-2.26,1.9-3.33,2.95-3.59,3.57-3.48,5.47-9.71,4.96-2.88-.24-2.6-.07-5.24.04-3.24.14-6.52-.11-9.76,0,.14.87-.05,2.79-1.08,2.93-1.35.18-1.14-1.92-1.73-2.51-.8-.79-3.66-.16-1.97-2.83l2.41-.17c.34-.52.3-4.13.22-5.02-.63-6.7-1.91-13.49-2.2-20.31-.6-14.05.59-29.3-2.28-43.19-.13-.62-1.56-1.94.43-2.46,1.12-.29,1.39.94,2.17,1.17,1.05.31,2.31-.1,3.36.11,11.08,2.17,15.94,6.01,24.82,12.03,2.33,1.58,5.35,2.66,7.52,4.62,3.92,3.52,9.66,15.61,10.38,20.81,1.54,11.19-6.7,19.67-14.01,26.88ZM259.77,29.32c-2.28-2.04-5.75-3.53-8.38-5.28s-5.16-4.11-7.82-5.61c-5.04-2.84-11.33-4.61-17.02-5.31.82,1.46-.7,2.1-.75,3.15-.16,3.21.53,8.32.76,11.78.94,14.4.88,28.88,2.17,43.3.28,3.1,1.5,6.34.86,9.75,3.07-.16,6.27.21,9.33,0,1.16-.08,2.13-.8,3.07-.85,2.27-.11,3.41,1.75,6.86.37,1.86-.75,2.08-2.04,3.29-3.22,9.38-9.21,20.77-17.73,16.28-32.68-1.19-3.95-5.64-12.72-8.64-15.41Z"/>
      <path d="M178.4,13.12c2.95-.02.84-3.51,4.34-2.6-.34,4.68,2.27,8.88,3.34,13.33.98,4.09,1.46,8.34,2.26,12.46,1.96,10.11,4,20.03,5.71,30.24.93,5.53,2.39,10.71,3.01,16.48.14,1.34.45,6.06-1.9,5.39-2.02-.58-.86-11.21-1.18-13.57-.48-3.55-1.65-7.22-2.18-11.24-.62-4.68-2.2-2.54-5.04-2.1-5.91.93-9.98-.46-15.73-1.2.66,2.61-1.09,3.91-3.47,3.03l-3.91,16.67c-.29,1.46,1.8-.19,2.17.22.63,2.89-2.52,5.17-3.27,7.34-.45,1.3.33,3.64-2.1,3.08-.4-.09-.62-1.14-.62-1.52.01-4.99,2.57-11.62,3.72-16.57,4.49-19.26,9.06-38.73,12.29-58.31.21-1.25,1.12-6.06,2.35-6.32l1.04.71-.83,4.48ZM180.94,14.92c-.29-.23-1.93.04-2.54-.5l-9.11,44.16c4.29-1.29,8.68,1.31,12.8,1.34,3.09.03,5.8-1.7,8.89-1.34-.49-4.25-2.45-8.35-3.37-12.44-1.57-7.06-1.95-14.48-3.62-21.5-.28-1.17-2.66-9.4-3.05-9.72Z"/>
      <path d="M364.06,9.71c.94-.27,2.2-.23,2.53.8,1.17,4.38-1.12,8.37-1.53,12.21-.47,4.33.27,9.46.03,13.92-.69,12.68-2.38,25.33-3.76,37.93-.43,3.93.92,8.48-2.14,11.77l-1.32.27c-2.78-.26-7.67-10.44-8.97-13.01-6.83-13.51-12.97-30.6-18.12-44.98-.87-2.43-.81-6.3-3.18-7.78-.14,7.35.28,14.83.02,22.2-.08,2.35-1.05,5.1-1.11,7.44-.22,8.43-.96,22.04-.02,29.98.13,1.08,1.46.78,1.42,2.1-.03,1.15-1.07,2.12-1.33,3.27-.54,2.37-.61,4.84-1.38,7.17l-2.37.47,2.21-82.4c4.5-4.22,2.86.54,3.31,2.84.41,2.08,2.43,5.16,3.23,7.49,5.97,17.21,13.7,42.5,23.12,57.62,5.05,8.1,3.57-.76,3.95-4.46,1.33-12.99,3.16-25.96,3.76-39,.18-3.85-.83-24.37,1.65-25.87Z"/>
      <path d="M420.22,8.03c0,1.96.37,4.07-1.06,5.63l-1.37-.27-.25-2.16c-1.26-1.29-7.08,6.05-7.92,7.33-10.24,15.45-16.58,41.75-4.3,57.53,7.74,9.95,15.04,12.33,27.44,9.41,3.87-.91,12.23-9.53,15.04-12.78,1.21-1.4,5.92-7.53,6.12-8.86,1.42-8.99-8.98-7.28-14.69-7.72-4.67-.37-6.51-2.73-10.72,1.61-1.92,1.99-.58,3.49-5.03,2.62-.09-.52-.54-1.05-.34-1.56.48-1.22,7.2-5.97,8.7-6.28,2.96-.62,4.76.73,7.38.94,5.55.44,13.46-1.12,16.54,4.87,1.53,2.97,1.97,5.16.23,8.14-2.71,4.65-16.97,20.25-21.85,21.48s-13.55,2.06-18.52.28c-5.27-1.88-14.1-11.62-16.5-16.67-7.41-15.61-.98-43.28,9.56-56.59,2.52-3.18,7.12-8.01,11.52-6.94Z"/>
      <path d="M534.26,4.83c-3.31,3.04-5.8,6.88-8.82,10.16-4.33,4.7-11.8,12.78-16.62,16.55-.7.54-4.81,3.14-5.34,3.24-1.22.23-1.14-1.53-1.39-2.34,6.7-3.72,12.43-9.97,17.73-15.56,4.78-5.04,9.32-10.33,13.63-15.79,1.38-1.19,3.15-1.67,4.31.02.19.39-.22,6.68-.33,7.7-1.12,10.74.06,19.51-.97,30.56-1.29,13.78-.55,24.29,1.03,37.88.18,1.54.46,14.36-3.28,9.67-.5-.62.14-7.37.08-9.14-.25-7-.96-13.92-1.66-20.79-1.2-11.72,4.01-25.76,1.07-37.95l.56-14.19Z"/>
      <path d="M3.13,7.53c1.05.63-.59,2.36-.73,2.88-.6,2.32.65,5.21.78,7.67.34,6.16-.73,11.56-.9,17.32-.37,12.21.52,24.32.9,36.37.22,7.05-.17,14.15-.04,21.21l1.29.26c.45.46-.93,7.83-3.43,6.47-.23-9.15.3-18.36.01-27.51C.64,59.87-.31,47.45.12,34.97c.2-5.78,1.26-11.14.9-17.31-.11-1.98-2.23-8.86-.02-9.94.47-.23,1.74-.41,2.13-.18Z"/>
      <path d="M58.2,95.33h-1.62c-1.09-1.84-.08-3.55-.04-5.33.25-10.3-.53-20.98-.03-31.21.66-13.56,4.1-27.48,2.13-41.06-.43-2.95-2.73-6.46.27-8.49,1.68,1,.52,1.91.65,3.2.07.73.69,1.39.83,2.24,2.56,15.54-1.03,29.64-1.72,44.97-.49,10.89.82,22.63.04,33.38-.06.8-.15,1.58-.51,2.3Z"/>
      <path d="M292.71,10.78c1.23,1.92.09,3.61.05,5.51-.25,11.13.57,22.66.04,33.71-.47,9.87-2.63,20.05-2.65,29.85,0,2.81,1.4,6.41-.12,9.33-4.09,2.53-2.13-7.99-2.12-9.33.07-7.88.54-15.55,1.13-23.46.89-12.12,1.77-24.8,1.65-36.88-.03-2.86-1.47-5.85.02-8.74h2Z"/>
      <path d="M56.09,58.58c-1.11.72-2.37.03-3.19.14-11.78,1.57-19.55-.81-30.86-1.43-5.1-.28-10.58.38-15.62,0-1.89-.15-1.34-1.27-.1-1.84,1.45-.67,12.87-.47,15.31-.34,8.86.45,19.46,3.25,28.19,2.2,2.2-.27,5.15-2.41,6.27,1.28Z"/>
    </g>
  </g>
</svg>