<?xml version="1.0" encoding="UTF-8"?>
<svg id="Layer_2" data-name="Layer 2" xmlns="http://www.w3.org/2000/svg" viewBox="0 0 498.3 104.89">
  <g id="Layer_1-2" data-name="Layer 1">
    <g id="identity">
      <path d="M32.66,87.53v4.93c-2.65.32-2.01.19-2.71-1.6-1.61-4.12.93-3.34,1.48-6.4,1.9-10.43-5.37-35.54-6.2-47.99-.55-8.21.47-17,.04-25.28,4.71-.88,1.36,4.07,1.19,6.73-.81,12.43,2.29,27.95,3.83,40.58,1.13,9.27,3.59,17.94,2.46,27.71,5.56.78,7.69,5.63,14.03,6.3,5.96.63,18.29-.6,24.6-1.36,7.51-.91,12.71-3.87,17.36-9.74,5.05-6.37,3.36-20.81,1.55-28.69-5.27-22.9-26.18-33.67-47.49-38.73-3.83-.91-7.32-2.09-11.37-1.56-.9.84,3.82,6.03-1.23,4.92l-1.24-7.39c23.6.93,55.79,14.29,62.55,39.07,1.84,6.74,3.69,20.06,2.71,26.78-1.59,10.9-15.39,17.09-25.19,17.92-5.72.49-11.55.78-17.24,1.23-9.24.73-11.92-3.08-19.13-7.42Z"/>
      <path d="M195.27,16.1c-.57.45-4.88-1.17-3.69,1.84,1.28,3.23,5.33,7.76,7.08,11.4,4.65,9.7,6.9,22.13,11.7,31.4,1.85,3.56,13.32,17.99,16.33,19.39,1.89.88,2.11-1.16,2.44-2.45,3.84-14.6,1.44-30.22.59-44.92-.08-1.33-.63-20.12,3.73-15.42-1.2,1.54-.03,3.02-.33,4.07-.39,1.37-2.04,2.24-2.21,3.96-.33,3.31,2.31,12.99,2.57,17.17.7,11.18.4,26.19-2.54,36.94-.34,1.26-.33,2.57-1.91,3.01-5.02,1.4-3.67-1.16-5.39-2.98-6.76-7.15-12.38-11.93-16.69-21.55-5-11.16-6.75-25.01-14.79-34.48-1.11.92-.8,4.16-.65,5.57,1.38,12.91,3.83,32.96,2.54,45.57-.28,2.79-1.29,6.99-4.97,6.72.17-2.9,2.16-3.31,2.53-6.7,1.05-9.76-1.02-20.27-1.33-29.58-.26-7.8.27-15.66.07-23.47-.06-2.46-1.51-4.38-1.25-7.23.09-.95.86-5.86,2.44-5.66l3.71,7.38Z"/>
      <path d="M429.21,5.08c-11.54,4.21-21.81-2.64-33.16-2.52l.06,6.67-2.61,1.41c4.17,14.44-1.17,33.84,1.32,47.96.35,1.97,2.13,2.95,2.47,4.92.3,1.72.1,4.32,0,6.18-.12,2.03-1.14,3.55-2.46,1.83l-3.7-68.96-23.77,3.69c-1.68.78-1.29,4.15-3.96,3.76-1.85.19-6.77-5.08-5.53-6.22,3.82-.28,7.97.37,11.73.03,8.93-.8,19.24-4.28,28.36-3.78s15.41,4.35,25.84,3.79c3.41-.18,5.99-3.07,8.6,1.18,1.27,2.06.12,2.39-1.24,3.69l-1.95-3.63Z"/>
      <path d="M307.11,2.83c1.1,1.11,3.67,8.62,2.72,9.58h-3.69c1.68-3.28,1.35-8.64-3.04-8.62-6.64.03-23.08,12.03-31.35,12.43.49,5.88.63,11.89,1.08,17.78.72,9.39.58,18.88,1.35,28.21.64,7.78,4.17,14.5,4.88,22.21.21,2.32,1.2,8.01-2.49,6.81l-3.62-20.4c.2-12.41-2.19-24.41-1.28-36.9-1.97-4.5-.04-15.29-4.54-17.62-5.93-1.34-11.63-2.69-17.33-4.86-2.19-.83-2.26-3.26-1.56-3.96,2.42-2.42,4.39,2.81,5.72,3.5,5.03,2.6,10.01,1.48,14.6,1.54,1.55.02,3,1.2,4.85,1.12,7.12-.31,21.3-11.24,28.71-12.12,1.44-.17,4.06.37,4.99,1.3Z"/>
      <path d="M154.61,86.3c1.63,1.38.19,2.36-1.83,2.46-8.96.44-18.43-1.19-27.03,1.17-.5-.3-1.04-.63-1.35-1.14-1.17-1.91-3.93-16.24-4.19-19.21-1.05-11.78.21-24.13-2.47-35.71l-1.92-23.94c5.14,1.06,2.7,9.03,3.04,12.97,1.39,16.08,1.74,35.1,3.79,50.39.56,4.2,3.36,9.61,3.64,14.22,1.33.55,2.74-1.23,3.08-1.23h25.25Z"/>
      <path d="M498.3.1l-13.27,34.14c-3.23,14.21-9.13,26.1-17.54,37.9l2.39.67c1.01.7-3.93,8.04-6.07,8.56-.39-11.99,10.13-20.53,14.17-30.77,5.28-13.4,8.62-29.61,14.75-43.13l5.56-7.36Z"/>
      <path d="M5.56,104.77c-3.34.49-2.4-.54-2.46-3.07C2.47,74.94-1.47,47.26.59,20.38c.31-3.96,1.81-8.88,2.51-12.89,2.03-.35,1.4,3.08,1.26,4.34-.5,4.58-2.77,11.77-2.59,15.96.64,14.92,2.12,30.61,2.59,45.54.33,10.44-1.2,21.34,1.19,31.43Z"/>
      <path d="M340.62,5.03l-2.46,73.88,1.23-3.7c2.03-.07,2.76-.61,2.46,1.84s-1.64,7.38-4.92,6.79c-1.76-2.08-1.44-16.61-1.29-20.37.72-18.46,2.08-36.66,2.52-55.37.06-2.53-.88-3.55,2.46-3.07Z"/>
      <path d="M477.36,34.58l2.47-3.69-1.26,5.35c.15,1.35-2.11.97-3.06.82-.53-.08-5.19-7.78-5.79-9-2.7-5.53-3.54-13.3-5.92-18.51-.5-1.1-1.93-.72-2.17-1.03-.9-1.21-.02-4.25-.27-5.95,1.81.31,2.43,2.23,3.08,3.69,4.22,9.39,4.77,21.27,12.92,28.33Z"/>
      <path d="M153.38,13.65v2.46h-24.02c-.99,0-5.39-2.5-8.01-1.23v-2.46c2.33-1.17,6,1.23,6.77,1.23h25.25Z"/>
      <path d="M147.84,41.97c2.95-.44,7.69-4.76,9.24,0-1.38-.47-2.82,1.24-3.08,1.24h-24.64c-.53,0-1.8,2.61-3.07,2.46l-1.24-3.69c7.09-.74,15.96,1.01,22.79,0Z"/>
    </g>
  </g>
</svg>