<svg width="167" height="75" viewBox="0 0 167 75" fill="none" xmlns="http://www.w3.org/2000/svg">
<path d="M51.7328 46.2358C49.0007 45.7394 45.3161 48.4201 42.5606 48.7719C42.0833 48.6855 42.2303 46.8337 42.2516 46.3437C42.3454 44.2976 42.6374 40.5852 42.94 38.6233C43.5175 34.8807 46.7056 28.5006 47.9395 24.4774C49.7977 18.4103 51.72 9.88909 50.2985 3.65792C50.2154 3.30179 49.6166 1.58374 49.4376 1.40244C48.2165 0.159224 46.9016 1.72403 46.4285 2.87444C45.3587 5.4731 45.1584 9.81139 44.7919 12.6561C43.9565 19.129 43.1211 25.794 42.4861 32.336C42.1344 35.9404 42.371 39.7888 39.9075 42.8903C39.6155 43.2594 39.3257 43.458 38.8398 43.4299C38.8803 44.2825 39.2468 44.5177 40.063 44.2221C40.4445 44.0839 41.3331 41.8198 41.8212 41.4874C41.6421 43.9242 41.2181 46.32 41.3758 48.8021C40.5574 49.441 36.3699 47.5524 36.095 47.0732C35.7689 46.5056 36.6086 46.2099 36.9218 45.9077C37.1285 45.0638 34.6224 45.7005 34.0428 45.7998C33.77 45.8473 33.4418 45.802 33.3012 46.1279C33.0518 46.7063 33.3779 46.5574 33.608 46.6869C35.9373 47.9905 38.3113 49.7712 40.973 49.9028C40.9197 50.9345 41.0455 52.0008 40.9687 53.0303C40.5319 58.7629 39.0231 65.6718 39.4834 71.3763C39.5239 71.8771 39.8158 73.7462 39.9543 74.1369C40.3742 75.3196 42.5308 74.9916 41.9277 73.6426L40.7599 73.8606C40.5638 71.6763 40.1909 69.7295 40.3358 67.4978C40.632 62.9695 41.412 58.3873 41.8254 53.898C41.949 52.5533 41.282 50.1144 42.8782 49.5683C45.704 48.6035 48.6406 47.8697 51.5239 47.1013C52.3444 46.8811 52.6619 46.4063 51.7328 46.2358ZM43.7199 31.2115C44.5788 22.7982 45.1073 14.3763 46.6779 6.14866C46.7674 5.6803 46.6608 5.20762 46.7844 4.74573C47.4131 2.39312 48.6832 0.385851 49.4461 4.08959C50.9634 11.4474 48.0311 21.5377 45.5846 28.5675C44.973 30.3179 43.9309 32.0899 43.7391 33.931C42.7929 33.3483 43.6368 32.0273 43.7199 31.2115Z" fill="#2E2E2E"/>
<path d="M61.8405 43.6283L61.0051 43.6434C60.7174 43.3542 61.9705 40.5634 62.1687 39.9677C65.474 30.0458 67.3941 21.7447 66.1026 11.1796C66.028 10.5731 65.5933 9.99898 65.6913 9.32773C65.2076 9.70976 64.7451 10.4565 64.4766 11.0091C60.8986 18.3518 60.4681 29.176 60.1612 37.2871C60.0078 41.3426 59.5219 46.6759 59.9375 50.6624C60.4191 55.2899 64.0184 54.7417 67.2278 53.0711C67.5155 52.92 68.3189 51.7524 68.6727 52.8143C67.328 54.7223 64.1953 55.3892 61.9769 55.0719C60.3317 54.8367 59.2555 52.6157 59.0786 51.1005C58.5565 46.5982 59.0808 39.5641 59.3067 34.915C59.6455 27.9587 60.142 19.7612 62.5672 13.1804C62.9742 12.0753 64.5107 8.21833 65.8064 8.24855C66.0877 8.22697 66.1644 8.41474 66.3051 8.60036C66.5928 8.97592 67.0872 11.035 67.166 11.6134C68.3381 20.2231 66.6716 28.8263 64.1335 36.9978C63.4409 39.2274 62.4947 41.4225 61.8405 43.6305V43.6283Z" fill="#2E2E2E"/>
<path d="M12.4167 52.7086L13.201 50.8092C14.4903 45.6529 15.3597 39.193 18.4029 34.7597C19.4471 33.2381 21.1499 31.4531 22.3667 33.8877C23.1616 35.4784 23.786 39.4973 24.1184 41.3945C24.7237 44.85 24.8622 49.7538 26.1131 52.9719C26.6203 54.2756 26.9805 54.3597 28.1824 54.9749C25.9405 56.6087 24.9368 52.7539 24.5745 51.0769C23.5878 46.5206 23.413 41.4873 22.3816 36.8943C22.2814 36.4454 21.4567 33.7496 21.2394 33.7C20.47 33.5295 19.4173 34.9475 19.0252 35.554C16.0459 40.1729 15.5174 45.8429 14.0641 51.0337C13.7423 52.1798 13.4141 54.1935 12.3081 54.6576C10.6288 54.6576 11.5494 49.9848 11.5707 48.9401C11.6559 44.5997 11.3278 40.6693 11.1381 36.4109C11.0997 35.5367 10.7375 32.0488 12.0843 32.1934C13.51 32.3467 12.274 33.4021 12.1908 34.0259C11.9628 35.7396 12.3933 37.7663 12.4253 39.4239C12.5062 43.8464 12.3464 48.284 12.4189 52.7064L12.4167 52.7086Z" fill="#2E2E2E"/>
<path d="M163.409 52.9181C159.249 52.6159 153.717 53.762 150.188 50.982C147.91 49.1884 148.719 47.4143 149.018 44.9408C151.684 46.238 153.655 46.2509 156.031 44.3818C158.49 42.4457 161.881 37.2527 160.268 34.0843C159.63 32.8324 157.683 32.895 156.534 33.236C153.93 34.0109 150.955 38.8564 149.753 41.2629C148.202 44.3688 146.092 49.3676 149.602 51.841C154.337 55.18 160.813 53.1188 166.126 54.267C166.441 54.3361 166.633 54.5606 166.914 54.6512C167.556 53.2051 164.417 52.9893 163.409 52.9181ZM150.399 41.9342C150.695 40.9673 153.572 36.8124 154.352 35.9815C155.49 34.7663 157.21 33.4368 158.974 34.0001C159.019 34.0152 159.432 34.544 159.473 34.6821C160.626 38.6384 155.697 45.6056 151.479 44.9257C149.568 44.617 150.407 44.0451 150.497 43.0889C150.531 42.7069 150.241 42.4565 150.399 41.9342Z" fill="#2E2E2E"/>
<path d="M107.997 46.2356C106.346 47.8889 104.232 49.2573 101.973 49.8487C99.9951 50.3689 96.8731 50.5761 95.3878 48.9681C93.7 47.14 93.8577 43.7341 94.5652 41.4829L94.7868 41.2693C99.1022 43.2895 103.761 36.7281 104.004 32.9056C104.166 30.3458 101.171 30.1127 99.4176 31.0646C95.6797 33.0934 92.8156 41.675 93.1736 45.7047C93.8385 53.1791 102.393 51.9315 106.8 48.4782C107.345 48.0508 109.444 46.7234 107.997 46.2356ZM96.091 36.7713C96.7474 35.3597 99.2216 31.7617 100.737 31.548C103.45 31.1638 103.271 32.8344 102.604 34.9496C102.041 36.7367 100.654 38.2756 99.2386 39.4174C98.7293 39.8275 98.2434 40.4146 97.5039 40.5743C93.9941 41.3275 95.1619 38.7742 96.091 36.7713Z" fill="#2E2E2E"/>
<path d="M4.05872 1.30103C4.00971 1.3852 3.63251 1.4478 3.4876 1.6809C2.99319 2.47733 3.33629 4.87742 3.24892 5.98034C2.56911 14.4497 1.47587 22.9148 1.11359 31.4446C0.902614 36.3959 0.591478 43.0134 0.900483 47.8654C0.936711 48.4438 1.05179 49.6676 1.17326 50.1791C1.35653 50.9583 2.50944 52.1001 1.43964 52.2879C0.604264 52.2879 0.280342 50.2396 0.0501868 49.5878C-0.258818 35.1678 0.909007 20.8622 2.18339 6.62569C2.38157 4.40906 2.34748 2.22049 2.82484 0.0427069C3.53448 -0.194712 4.4615 0.603879 4.05659 1.29887L4.05872 1.30103Z" fill="#2E2E2E"/>
<path d="M124.509 38.2477C124.443 39.0226 124.697 39.737 124.733 40.5053C124.801 41.9752 124.219 44.7508 124.55 45.871C124.742 46.5207 125.948 46.6308 126.512 46.8639L126.64 47.5286C125.673 47.561 124.88 47.6711 124.179 46.8919C122.787 45.3401 124.601 40.4816 123.546 39.9787L121.954 42.4608C121.138 44.3753 118.847 49.4194 116.181 47.0085C115.876 46.7344 115 44.7962 114.932 44.3882C114.832 43.7817 114.983 43.1148 114.896 42.4824C114.591 40.2463 114.178 37.3844 114.48 35.1095C114.559 34.5116 114.796 34.3087 115.237 33.9439L115.955 34.7339C115.405 36.6829 115.435 39.1218 115.548 41.1723C115.625 42.5623 115.908 47.2696 118.122 46.579C119.51 46.1473 121.138 41.8673 121.95 40.514C122.495 39.6032 123.312 37.9412 124.509 38.2477Z" fill="#2E2E2E"/>
<path d="M144.754 49.905C144.809 50.3756 144.396 50.6864 144.002 50.7619C142.936 50.9669 138.171 50.8936 137.025 50.7166C133.926 50.2353 131.72 47.9625 131.343 44.8156C131.017 42.0896 132.907 36.357 135.439 34.9692C136.692 34.2829 140.008 34.1749 140.716 35.7462C140.944 36.2513 141.888 39.8147 140.494 38.8974C139.953 38.5413 140.993 35.334 137.824 35.4333C136.202 35.4829 135.166 36.1412 134.31 37.4837C132.426 40.4428 131.215 44.7358 133.472 47.7942C133.956 48.4503 136.726 49.9072 137.402 49.9072H144.754V49.905Z" fill="#2E2E2E"/>
<path d="M76.8473 49.1841C77.0966 49.6352 78.4669 50.7813 79.0146 50.7597C80.2186 50.71 81.6614 48.2042 82.1302 47.2373C83.4472 44.5307 84.2122 41.1788 84.7535 38.2391L85.4014 36.5253C86.4946 37.2937 85.7061 38.0556 85.5591 38.8369C84.9752 41.9363 84.1313 45.7113 82.5287 48.5021C81.0135 51.1439 78.4882 53.367 76.2932 49.851C74.9421 47.6862 74.7759 43.227 75.0636 40.7233C75.1254 40.1902 75.4408 39.8341 75.4855 39.424C75.6283 38.0491 74.9869 36.1498 76.4509 35.4332L76.9879 35.7721C76.2953 37.1102 76.5084 38.4743 76.338 39.8557C76.2804 40.324 75.9799 40.6931 75.9117 41.3665C75.7093 43.3673 75.8798 47.4272 76.8494 49.1841H76.8473Z" fill="#2E2E2E"/>
</svg>
