<?xml version="1.0" encoding="UTF-8"?>
<svg id="Layer_2" data-name="Layer 2" xmlns="http://www.w3.org/2000/svg" viewBox="0 0 554.45 110.82">
  <g id="Layer_1-2" data-name="Layer 1">
    <g id="influence">
      <path d="M400.46,3.69c3.05,14.13,1.99,28.23,2.43,42.53.23,7.5,2.06,15.19,1.3,23.39-.63,6.71-4.07,13.21-2.5,20.29-2.28.51-2.4-.72-3.49-2.05-3.65-4.45-5.81-10.76-9.01-15.62-11.49-17.41-25.07-32.93-31.51-53.52.43-2.85-2.28-2.56-2.52-2.9-.99-1.44.53-4.72-.89-4.73l-.67,10.53c1.57,21.14,1.47,41.46,3.82,62.68.26,2.32,3.39,6.36-1.3,5.62l-2.55-28.86c-2.64-13.54-.39-28.15-1.12-41.99-.21-3.95-2.3-8.4-1.26-12.89,3.49-.69,2.31,1.21,2.51,3.68l3.05-.1c5.41,16.87,13.73,32.12,23.48,46.8,2.76,4.15,7.16,8.58,9.71,12.46,3.51,5.34,5.84,12.85,10.51,17.19.51-12.57,1.66-24.87,1.27-37.59-.3-9.74-.33-21.04-1.24-30.78-.39-4.17-2.56-7.99-2.53-12.26.02-2.46.1-1.97,2.5-1.88Z"/>
      <path d="M506.4,65.88c.08.39,2,3.46,2.42,3.74,12.32,1.91,25.34-4.41,37.5-.71l.73,3.74c-.45.54-2.16-1.92-3.28-2.26-7.76-2.35-22.23,2.3-30.58,2.36-7.13.06-8.62-3.91-9.28-10.54-1.47-14.72,1.21-31.7-.02-46.68,10.09-9.43,24.41-5.45,36.33-6.99,4.75-.61,13.84-8.22,14.23.68-1.2,1.21-2.17-1.86-4.27-1.86-2.71,0-7.78,3.2-11.19,3.64-9.59,1.25-20.25-1.15-30.06,2.58l-.06,4.88-2.46-1.24v23.4c3.09-.31,4.52-2.15,7.96-2.51,7.96-.83,18.72-.14,26.53,1.28-.81,3.02-1.82,1.63-3.33,1.57-8.35-.31-19.01-2.82-26.53-.03-1.6.59-2.68,2.34-4.63,2.15.93,6.69-1.28,16.57,0,22.78Z"/>
      <path d="M81.41,99.75c-1.19-.23-3.1.79-3.76-.74-3.69-8.7-9.19-16.43-12.87-25.12-4.54-10.69-8.99-24.47-12.34-35.69-2.17-7.26-4.22-14.72-5.52-22.18,3.21-.52,2.22.47,2.76,2.72,6.27,25.92,14.57,53.43,28.64,76.08,1.8-.8,2.59-8.1,2.99-10.56,1.81-11.03,2.6-22.28,4.94-33.23L90.65,0c1.48,1.14,2.79,5.37,2.63,6.81-.1.86-1.72,1.9-2.01,3.65-.62,3.67.39,8.45.04,12.35-2.1,23.58-6.88,46.78-9.81,70.24-.28,2.23-.03,4.48-.09,6.7Z"/>
      <path d="M130.07,9.85c-.33.03-1.27,1.05-2.48,1.21-4.25.56-9.22-1.69-10.28,4.59-.34,2.05,1.05,3.85,1.1,5.86.26,11,.02,21.98,2.43,32.67,8.27-1.45,16.86-3.78,25.26-3.7,1.47.01,4.6-.91,4.3,1.22l-30.8,4.94c2.56,5.09.57,11.1,1.3,16.56.64,4.82,3.94,9.67,2.4,15.45-2.57-.52-2.05-2.52-2.46-4.31-1.99-8.71-1.13-18.03-2.45-25.87-.31-1.84-2.2-3.15-2.18-3.69.03-1.2,1.01-2.73.9-7.36-.31-12.94-.65-26.09-3.43-38.44-.49-2.16-.19-4.38-.22-6.55,2.82.98,3.06,4.93,3.71,7.38l19.04-2.49c4.5.81,16.47-2.67,15.45,4.31l-4.31,1.9,1.84-3.71c-6.23.37-12.93-.51-19.09,0Z"/>
      <path d="M256.33,9.85l-2.48-.6,3.7-3.09c0,1.55,1,2.85,1.18,4.36,2.1,17.77-.76,45.38-6.41,62.44-2.54,7.67-5.56,13.28-14.44,7.66-2.66-1.68-7.11-11.87-8.09-15.31-4.57-15.98-2.76-33.75-1.84-49.96l2.5-6.73c-.03,20.18-5.92,50.12,6.84,67.67,2.89,3.98,5.43,4.37,10.3,3.64,1-3.6,2.44-7.08,3.48-10.69,1.3-4.52,5.26-18.14,5.26-21.83V9.85Z"/>
      <path d="M309.92,9.85c4.07-.57,11.79-6.6,14.17-1.24-5.81-.71-11.15,2.98-16.71,3.62s-11.17-.27-16.55.09l4.92,8.61-6.15-4.92c2.65,19.41.57,39.47,1.23,59.11,13.3-3.28,25.96-9.36,36.95,2.46-4.41.59-8.19-3.87-11.93-4.68-4.81-1.04-18.77,1.98-23.03,4.63-1.36.84-.2,2.52-1.38,2.53-2.78.48-1.74-1.21-1.84-3.07-1.01-18.06,1.46-38.97-1.26-56.63-.48-3.1-3.51-4.9-1.87-8.04.2-.38,2.33-2.45,2.51-2.45,6.26,0,15.14.81,20.94,0Z"/>
      <path d="M449.73,7.39v3.69c-4.13-2.52-5.33-.55-7.92,2.55-6.92,8.28-16.78,30.6-17.86,41.25-1.12,11.08-1.64,20.24,10.04,24.27,13.24,4.56,29.79,3.06,40.38-6.5.41,2.08-1.09,3.1-2.43,4.34-4.07,3.79-12.34,6.36-17.86,6.77-6.12.46-19.17-.98-24.4-3.99-8-4.6-8.88-11.64-8.31-20.08.96-14.19,9.45-35.71,18.51-46.76,2.56-3.13,5.48-6.46,9.85-5.54Z"/>
      <path d="M175.03,3.69c-.92,3.34,3.05,6.46-.96,6.34-1.54,22.6,1.43,44.97.96,67.55,9.71-3.36,18.48,2.47,29,2.5,3.28,0,5.71-3.16,5.48,3.65-3.27-2.15-6.9-.75-10.39-1.31-8.93-1.42-17.08-6.23-26.56-2.39-.28-10.45.35-20.98.03-31.43-.06-2.1-1.26-3.99-1.3-6.09-.21-10.06-1.3-28.15,1.2-37.08.53-1.9-.47-2.04,2.53-1.75Z"/>
      <path d="M46.92,103.43c-1.12-4.24,1.09-9.44,1.11-12.92.02-2.91-2.08-7.67-2.38-11.06-.92-10.58-.97-22.63-1.26-33.22-.39-14.56.4-29.22.06-43.77,3.02.81,1.63,1.82,1.58,3.33-1.06,28.99,1.51,62.87,3.43,92.03.17,2.58,2.94,5.32-2.55,5.62Z"/>
      <path d="M3.81,110.82c-.2-1.92-1.12-3.46-1.29-5.49-2.11-24.81,1.75-52.58.09-77.66C2.28,22.85.41,16.56.07,11.73c-.24-3.45.23-7.04.04-10.5l2.1,3.3c-.46,3.95.13,8.04.44,12.01,2.04,26.79,1.9,55.57,2.33,82.63.05,3.39,2.9,9.75-1.17,11.65Z"/>
      <path d="M327.78,38.18c-.53,2.36-2.36,2.27-4.26,2.51-7.95.98-16.87,1.32-24.66,2.44-1.94.28-5.9,3.22-6.8,2.44-2.2-1.92,1.6-2.63,2.46-3.02,6.19-2.75,9.49-1.27,15.43-1.88s11.46-3.79,17.83-2.49Z"/>
    </g>
  </g>
</svg>