<?xml version="1.0" encoding="UTF-8"?>
<svg id="Layer_2" data-name="Layer 2" xmlns="http://www.w3.org/2000/svg" viewBox="0 0 661.51 104.69">
  <g id="Layer_1-2" data-name="Layer 1">
    <g id="inspiration">
      <path d="M71.45,88.69l2.51-17.82c1.71-18.21-5.81-35.77-.7-53.66l3.13-7.33c.68,4.95-2.05,9.42-2.49,14.13-1.6,17.24,3,31.91,1.22,50.48-.25,2.6.02,16.09-3.1,16.65-.95.17-3.67-1.1-4.33-2.02-3.16-4.36-4.77-13.28-7.08-18.52-2.52-5.74-6.45-10.91-9.1-16.77-6.32-13.97-7.93-29.09-13.98-42.72-.85-1.92.13-3.03-3.02-2.46.01,2.22-.15,4.46.08,6.69,2.28,21.82,3.28,45.68,4.88,67.77.19,2.68.1,5.95-.03,8.67-.1,2.02-1.08,3.46-2.46,1.83-.31-5.9.4-12,.03-17.89-.13-2.1-1.16-3.98-1.31-6.08-1.53-21.88-3.12-43.77-2.42-65.92,2.53,2.24,7.03,4.11,8.07,7.32.73,2.27.27,4.52.81,6.57,6.32,23.75,14.99,43.72,25.37,65.77.89,1.88,1.74,4.63,3.92,5.31Z"/>
      <path d="M587.58,51.18c-.14-11.68-.55-29.43-11.11-36.93-5.28-3.75-25.17-11.5-30.76-8.68-3.95,1.99-7.13,9.67-8.34,13.82-.51,1.78.02,3.94-.51,5.65-2.03,6.49-5.9,13.32-6.86,20.24-1.6,11.59.12,26.32,13.94,28.58,7.58,1.23,22.03,2.34,29.47,1.26,1.79-.26,9.14-4.03,10.2-5.19,2.11-2.31,4.86-11.63,4.88-14.88,0-1.04-.89-2.45-.91-3.87ZM551.88,7.43l-11.08,9.84c1.31-5.89,4.08-11.35,11.08-9.84ZM586.41,56.1c-1.51,14.64-11.82,18.39-25.21,17.73-8.37-2.86-20.15.44-25.89-7.35-6.44-8.74-2.62-27.84,1.82-37.28.51-1.08,1.86-.74,2.12-1.09.65-.9.45-4.04,1.71-6.37,1.13-2.1,9.58-10.96,11.77-11.62,1.35-.41,2.72-.25,4.08-.24v4.93l2.47-4.93c10.7,2.14,18.57,5.33,22.78,16.02,2.88,7.31,5.15,22.46,4.35,30.2Z"/>
      <path d="M290.97,50.74c-.44.44-1.34,2.77-.93,3.48,11.07,11.55,27.33,15.73,38.26,27.08l1.23-3.69,1.85,8.61-12.42-10.36c-4.77-3.23-10.26-5.18-15.11-8.29-2.07-1.33-15.74-11.26-16.28-12.12-3.05-4.93,7.13-8.01,9.27-9.3,6.81-4.12,13.47-22.44,8.76-28.35-.69-.87-14.13-7.34-15.71-7.68-3.91-.85-8.9-.52-11.35,2.96,2.12,6.69.76,13.9,1.08,20.85.4,8.86,2.23,19.34,2.56,28.23.28,7.79.33,16.93-.06,24.7-.12,2.39.15,1.94-2.46,1.83-2.82-5.26-.13-9.54.03-14.13.33-9.67-.91-18.93-1.3-28.32-.54-13.02.24-25.92-2.42-38.83,4.32,4.18,7.6-1.19,13.93.23,1.27.29,16.07,7.12,16.84,7.8,5.84,5.17.19,25.5-5.5,30.16-2.64,2.17-8.98,3.86-10.25,5.13Z"/>
      <path d="M399.19,56.74l6.1-1.9c-2.52-3.64-4.7-.38-7.38.61-3.27-9.63-5.76-19.76-9.63-29.18-1.56-3.81-5.09-11.82-7.06-15.11-.89-1.49-2.31-2.86-4.26-2.5.66,1.47,1.26,2.57,1.33,4.31.51,13.07-8.5,30.29-7.44,44.21l-2.6,1.4c2.68,5.9-.54,13.44-1.07,19.73-.25,3.05-.02,6.12-.07,9.16,2.29-.52,2.33-2.35,2.52-4.26.56-5.83.51-12.47,1.11-18.42l2.62-1.41-1.33-3c8.49.37,16.47-.04,24.63-2.47,2.98,11.83,7.91,22.8,12.05,34.2.72,1.97-.75,3.34,2.74,2.74.23-5.88-14.85-35.44-12.26-38.11ZM372.03,57.91l7.31-36.41.09-6.69,6.77,12.32,9.24,29.55-23.41,1.23Z"/>
      <path d="M661.51,85c-27.62-1.43-30.19-34.42-40.38-53.84-1.6-3.06-5.21-4.97-5.21-8.97-2.61-.11-2.34-.55-2.45,1.83-.47,9.41.32,18.95.04,28.37-.07,2.28-1.17,4.57-1.32,7.3-.48,8.71,1.84,16.66,1.28,25.3-4.17-2.32-2.31-10.64-2.42-15.42-.24-10.76.76-20.04,1.23-30.72.38-8.8-.35-17.71-.03-26.51,4-.89,1.83,3.08,3.1,6.13,1.74,4.21,6.29,8.93,8.25,12.68,4.76,9.1,7.36,20.65,11.81,30.06,4.78,10.11,12.52,21.11,24.87,21.31V6.19h1.23v78.81Z"/>
      <path d="M168.93,7.17c.99.82,5.66,0,7.79.31,4.81.7,17.14,8.8,21,12.25s7.61,12.88,8.01,17.97c.28,3.61-4.87,7.07-7.4,9.74-1.16,1.22-1.67,3.01-3.04,4.35-4.77,4.62-12.77,5.26-19.12,4.89-.37-1.52,2.36-2.05,3.34-2.19,2.78-.4,5.55.05,8.13-.5,5.69-1.21,10.69-10.89,15.04-14.53,1.23-6.56-2.31-14.16-7.43-18.48-2.29-1.93-13.16-9.82-15.32-10.54-3.55-1.19-7.52-.3-11.16-.55-1.03,4.49,1.07,8.95,1.27,12.9.82,15.81.81,33.73,3.66,49.29.37,2.02,2.12,2.96,2.46,4.93.73,4.15-.52,9.79,0,14.17-5.46-3.64-3.03-11.39-3.65-16.66-2.38-20.17-4.23-40.25-6.11-60.38-.29-3.14-.91-7.06,1.77-9.16,1.17-.23.21,1.75.77,2.21Z"/>
      <path d="M418.84,12.35l-1.23,2.46v-4.92s67.75,1.23,67.75,1.23c1.64,1.38.19,2.36-1.83,2.46-2.74.14-5.84.18-8.55-.08-4.16-.41-9.5-2.48-13.63-2.49-4.38,0-9.31,2.45-14.17,1.34l-.03,37.6,5.57,43.69c-2.34-.13-5.23-4.97-5.54-6.78-.72-4.21,1.48-7.42,1.32-11.06-.2-4.62-2.27-11.23-2.59-15.99-.71-10.58-.63-21.48-1.23-32.02-.29-5.1.28-10.33.04-15.43h-25.87Z"/>
      <path d="M112.1,9.89c-7.72,6.61-14.02,17.31-14.83,27.65-.6,7.6-1.38,18.19,6.55,21.88,8.78,4.09,19.27,3.78,27.94,11.48,17.61,15.64-7.04,24.11-20.89,22.72v-3.69c5.27,3.66,22.68-1.05,24.46-6.96,2.4-7.97-11.83-15.08-17.95-17.39-8.58-3.23-21.33-3.84-22.56-15.63-1.34-12.88,2.58-28.24,11.71-37.64,1.76-1.81,2.76-2.9,5.58-2.42Z"/>
      <path d="M0,.04c4.08-.64,4.73,7.59,4.96,10.43,2.35,29.85,2.69,59.69,5.21,89.62.16,1.9,2.03,2.68-.93,4.61-2.38-1.57-1.71-3.24-1.87-5.51-2.06-28.25-1.95-56.83-4.94-84.95-.25-2.39.35-4.98.01-7.4C2.06,4.11-.14,2.7,0,.04Z"/>
      <path d="M506.29,7.42c5,12.54,3.13,24.63,3.67,37.59.51,12.48,1.08,25.81,2.42,38.22.24,2.23.06,4.47.08,6.69-2.3-.51-2.32-2.34-2.52-4.25-2.31-22.14.92-46.04-2.66-67.53-.48-2.88-2.65-6.27-3.29-9.04-.55-2.38.44-1.73,2.31-1.69Z"/>
      <path d="M231.59,12.35c.28,7.15-.37,14.42-.03,21.58.38,8.13,1.9,17.6,2.53,25.79.56,7.28-.35,14.33,2.43,21.58-3.65.59-1.99-.84-2.55-2.94-2.69-10.09-1.48-20.71-3.64-30.89.68-11.3-1.76-21.96-1.2-33.3.1-2.01,1.08-3.46,2.46-1.83Z"/>
    </g>
  </g>
</svg>