<?xml version="1.0" encoding="UTF-8"?>
<svg id="Layer_2" data-name="Layer 2" xmlns="http://www.w3.org/2000/svg" viewBox="0 0 681.17 88.82">
  <g id="Layer_1-2" data-name="Layer 1">
    <g id="my_projects" data-name="my projects">
      <path d="M62.99,7.42l-4.93,73.88c-1.38,1.63-2.36.19-2.46-1.83-.13-2.72-.23-5.99-.03-8.67.95-13.05,2.83-26.27,3.77-39.34.46-6.38-.01-12.75,1.19-19.12l-4.71,6.98c-4.49,6.68-6.31,15.34-9.81,22.21-3.77,7.39-11.66,13.86-12.58,22.53-1.72.33-2.02-.12-3.04-1.27-.55-.61-4.91-7.18-5.42-8.13-3.46-6.44-4.65-14.63-8.53-21.02L3.87,14.81c-.3,13.73.38,27.55.03,41.29-.18,7.11-1.74,14.28-1.32,22.19.16,3,3.57,10.17-1.17,9.18C-.09,80.44-.15,73.09.14,65.88c.08-2.1,1.25-3.99,1.3-6.09.44-16.2-.4-32.48-.03-48.67,4.04-.9,5.35,2.87,7.17,5.76,3.33,5.27,8.61,13.13,11.15,18.41,3.87,8.06,4.86,17.27,11.86,23.84,3.68-5.73,8.78-11.68,11.94-17.61,6.1-11.46,8.06-21.52,16.75-32.49.72-.91-.26-2.36,2.72-1.6Z"/>
      <path d="M370.69,24.32c-3.9-10.95-9.6-19.13-22.44-18.05-1.6.13-3.17,1.25-5,1.24-2.46-.02-4.28-1.76-7.14-1.15-9.8,2.08-16.17,21.15-16.92,29.97-1.37,16.17-.39,42.05,21.63,40.08,8.28-.74,30.07-14.36,31.34-22.84,1.62-10.78,2.24-18.8-1.47-29.25ZM367.83,57.86c-3.21,4.51-19.3,15.24-24.62,16.03-7.1,1.05-14.5.43-18.09-6.48-5.37-10.35-4.73-35.41.03-46.06,1.9-4.25,4.95-6.09,6.51-10.15.74-.74,3.06.73,4.25.65,2.4-.16,7.79-2.91,10.98-3.24,7.53-.78,14.39.76,18.18,7.78,1.49,2.75,5.46,12.28,5.83,15.11.91,7.07,1.02,20.6-3.07,26.36Z"/>
      <path d="M298.24,70.89c-1.1-3.81-8.24-8.99-11.05-12.36-3.31-3.99-6.17-10.85-8.96-13.83-.81-.86-4.38-1.94-4.45-3.4-.18-3.72,11.48-7.69,13.97-11.77.82-1.35,2.19-5.07,1.79-6.5-.66-2.36-15.61-12.96-18.29-13.83-3.66-1.21-8.26-.1-12.22-1.62l-2.68,3c-1.03,5.83,3.85,4.85,4.79,7.49,1.78,5.01,1.03,11.85,1.44,17.03.1,1.21,1.19,2.15,1.21,2.49.45,7.11,0,14.95,0,22.17,0,.77-2.4,4.44-1.23,6.77h2.46v-18.47c3.87,1.28,5.97-5.57,7.99-4.92,3.11,1,8.09,11,10.49,14.15,2.26,2.96,6.34,6.17,8.61,8.87,1.37,1.63,3.37,4.37,3.72,6.53,1.7.18,3.06.45,2.41-1.8ZM265.03,41.9c.63-10.48-.84-20.72-3.7-30.78,10.21-2.11,15.88,5.35,24.05,9.82,6.39,6.29-5.09,11.24-9.22,14.24-3.52,2.55-5.89,7.01-11.13,6.72Z"/>
      <path d="M240.22,24.21c-1.81-3.27-12.2-11.52-15.8-12.53-5.64-1.59-11.12.25-16.69-.19l-1.72,1.59c.15,11.01-.6,22.16-.15,33.17.24,5.99.73,13.62,1.23,19.7.14,1.63,3.1,16.39,4.96,14.13l.05-7.9c-4.62-1.58-2.08-9.99-2.45-14.95-.16-2.1-1.42-3.45-1.29-5.48,2.27,1.28,3.5,3.41,6.53,2.28,8.94-4.93,18.73-8.67,26.58-15.36.06-4.81,1.13-10.16-1.25-14.46ZM236.64,40c-6.06,4.43-14.42,7.08-20.84,11.21-3.21,2.36-7-3.6-7.44-6.23-1.35-8.03.98-19.28,0-27.71l4.92,1.23-3.69-4.92c7.23.04,12.43-1.12,18.91,2.65,7.67,4.46,17.97,16.59,8.14,23.77Z"/>
      <path d="M422.09,80.07c2.52-.35,11.08-3.85,12.31-6.16,3.72-7.02-1.89-17.52-5.75-23.79-5.33-8.65-10.71-17.07-16.06-25.82-.58-.95-.93-2.22-.98-3.33-1.92-.12-1.46,2.43-2.99,3.77-2.83,2.49-7.33-.59-9.76-2.72-1.54-1.35-9.46-10.45-9.48-11.51-.02-1.51,1.05-2.82,2.52-3.09-1.38,4.77,13.32,18.98,16.02,16.01-.07-3.56.03-9.14,3.69-11.09-.25,3.64,1.13,7.08,2.63,10.31,5.06,10.93,13.15,20.48,18.55,30.71,3.39,6.42,8.55,18.78,1.46,24.09-7.6,5.69-27.41,6.14-36.76,5.02-3.58-.43-5.12-1.88-5.6-5.47l2.46-.62,1.86,3.69c8.1-.8,18.05,1.1,25.87,0Z"/>
      <path d="M483.06,73.92c.93-4.84,1.6-9.18,1.27-14.2-.48-7.16-2.44-13.76-2.49-20.84-.06-9-.66-17.64-1.24-26.53,3.48-.68,2.3,1.19,2.5,3.64,4.69-.08,9.47.28,14.17.09,4.29-.17,7.61-3.2,11.66,1.81l-2.4.97-.22-1.36-23.25,1,1.24,23.4c1.61,1.61,18.15-7.65,22.17-6.15.59,3.79-.96,1.96-3.07,2.43-6.85,1.52-12.17,4.92-18.99,6.29l1.13,26.99h27.1v2.46h-29.56Z"/>
      <path d="M661.66.05l1.25,4.91-3.12-2.54c-11.05.34-16.49,20.49-10.49,27.85,2.52,3.09,11.03,5.29,14.9,7.27,7.98,4.09,20.64,10.33,15.96,20.99-7.98,5.31-14.63,13.34-25.28,11.71-2.13-.33-3.41-1.44-3.05-3.71,2.02.68,4.98,2.05,7.01,2.14,4.44.19,14.94-7.52,18.27-10.73,2.32-2.24,2.18-3.3,1.26-6.25-3.82-12.26-28.07-13.2-32.43-22.99-1.73-3.89-.37-16.28,1.6-20.02s9.46-9.26,14.11-8.63Z"/>
      <path d="M554.51,12.35l-.6,2.44c-.89-.81-1.85-1.41-3.07-.69-1.47.87-7.33,7.2-8.46,8.9-7.06,10.53-8,25.93-1.66,37,1.02,1.78,6.12,7.63,7.62,8.39,6.95,3.51,16.36-3.27,23.41-3.09.58,3.64-.83,2-2.94,2.55-3.69.97-9.25,3.36-12.41,3.65-17.74,1.64-23.38-21.12-21.54-35.09,1.06-8.09,9.69-25.44,19.65-24.07Z"/>
      <path d="M135.67,12.35c1.05,4.32-1.72,3.3-3.53,5.68-13.76,18.03-26.39,46.44-37.89,66.84-1.07,1.89-1.41,4.56-4.15,3.83,3.6-10.45,10.77-20.17,16.24-29.93,7.72-13.78,15.67-31.41,25.38-43.59,1.16-1.46,1.35-3.39,3.95-2.82Z"/>
      <path d="M602.55,15.42c-.12-1.52-2.42-5.11-1.23-8,1.58-1.93,3.48,9.11,3.61,10.55.97,10.72-1.46,25.24,1.54,35.4.32,1.08,1.7,1.87,2.03,2.9,1.4,4.46-2.38,6.81-3.37,3.37-1.22-4.22-.95-11.37-1.36-15.88-.11-1.2-1.21-2.21-1.21-2.48,0-8.29.65-17.77,0-25.86Z"/>
      <path d="M622.26,4.95l-43.75-1.22-1.83-2.46c8.38.32,16.9-.43,25.29-.04,2.08.1,3.96,1.14,6.09,1.3,4.4.34,11.81-1.91,14.2,2.42Z"/>
      <path d="M108.58,45.59v6.16c-2.1.4-3.13-1.05-4.26-2.51-4.64-5.99-7.61-16.42-11.23-23.25-2.12-4.01-6.73-7.59-6.68-12.41,9.6,8.77,11.97,22.73,19.05,32.98l3.12-.96Z"/>
    </g>
  </g>
</svg>