<svg width="162" height="106" viewBox="0 0 162 106" fill="none" xmlns="http://www.w3.org/2000/svg">
<path d="M158.424 61.3223C155.814 57.4918 151.44 54.9443 148.281 51.6335C147.784 51.1092 146.165 49.2786 146.034 48.7265C145.931 48.281 147.425 46.2834 147.751 45.5271C148.839 42.9773 149.235 39.3904 145.347 39.8962C143.745 40.105 143.651 45.3484 143.82 46.534C143.952 47.4667 145 48.2578 143.736 49.0884C141.501 50.557 139.05 50.1023 138.672 47.2184C138.508 45.9702 138.792 44.4436 138.672 43.1582H139.845C140.22 42.1258 139.47 40.0145 138.185 40.9379C138.063 41.0261 137.516 43.3926 137.495 43.7475C137.443 44.6199 137.737 47.7915 137.992 48.5873C139.087 52.0001 143.152 51.2368 145.234 49.1905C148.522 54.8074 155.066 57.5753 158.412 63.1876C161.539 68.4287 162.732 75.7857 156.424 79.1638C146.534 84.4629 129.453 75.2846 120.41 70.6189C119.418 70.1084 118.543 68.9484 117.331 69.3776C116.915 69.895 120.192 71.584 120.609 71.8137C129.655 76.7834 153.9 88.8223 160.955 76.2219C163.417 71.8253 161.102 65.2525 158.424 61.3223ZM145.005 47.1001C144.878 44.9934 144.613 42.8543 145.509 40.8776C147.469 40.3254 147.58 42.2812 147.336 43.7267C147.251 44.2208 145.771 47.8819 145.005 47.1001Z" fill="#2E2E2E"/>
<path d="M31.2667 23.3308C31.3558 21.6835 30.9384 19.7555 30.7883 18.1013C29.8971 17.9551 29.6672 18.7184 29.3412 19.3356C27.39 23.0338 26.3276 33.2793 26.0907 37.6968C25.8914 41.4205 26.5433 45.9842 26.1048 49.5432C25.882 51.3645 21.9842 56.1114 20.4105 57.1368C18.3678 58.4686 16.4517 58.1507 15.6168 55.7332C14.9484 53.8006 14.8053 48.3623 15.0891 46.3043C15.1454 45.9099 15.9006 43.5875 16.1304 43.388C17.357 42.33 21.0508 42.9356 22.017 44.4135C22.3594 44.9355 22.9363 46.8148 23.0372 47.4621C23.1146 47.9539 22.8378 50.1 23.4031 50.1139C24.2778 50.1325 24.055 47.8913 23.9706 47.237C23.8158 46.0375 23.0161 43.8775 22.1202 43.0353C20.2276 41.2581 15.6707 41.279 14.6787 44.0399C13.7781 46.5387 13.8602 53.608 14.735 56.1415C15.7904 59.1971 18.3701 59.6077 21.0203 57.9698C22.5165 57.0464 25.2535 52.9096 25.7811 52.7008C25.9406 52.6382 26.3276 52.5639 26.3487 52.8052C26.5574 53.4595 26.5949 54.5824 27.2071 54.9977C27.7582 55.3736 29.3342 55.6891 29.5945 54.8492C29.9932 53.5616 28.2038 54.8284 27.6362 53.8191C26.0344 50.9724 27.8778 48.4481 28.565 45.715C30.0988 39.6225 30.9149 29.7157 31.2667 23.3308ZM27.5049 46.1721C27.1086 46.1721 27.0593 45.4018 27.0359 45.1327C26.4542 37.9427 28.1053 29.0498 29.3999 21.9921L30.0847 21.1174C30.2817 23.4236 29.8033 25.6857 29.6203 27.964C29.156 33.7225 28.9167 39.286 27.5635 44.954C27.4674 45.3531 27.5049 45.7684 27.5049 46.1721Z" fill="#2E2E2E"/>
<path d="M4.99072 0.00464019C4.68818 3.19941 4.72101 6.42434 4.74681 9.64231C4.7515 10.1156 4.96961 10.5379 4.96961 10.9996C4.99541 24.7554 4.13939 38.7827 2.15999 52.3042C1.89967 54.0884 1.17499 56.3713 1.00378 58.1207C0.877138 59.4269 1.0671 60.9349 1.03896 62.2667C1.21955 62.8073 1.95596 62.6309 2.41563 62.6472L2.38748 63.5474C1.9841 63.9627 0.121966 63.211 0.0586446 62.9534C0.222812 61.2667 -0.133666 59.2946 0.0586446 57.6497C0.462028 54.216 1.22424 50.7033 1.72612 47.2348C3.67034 33.7666 3.9846 20.0943 3.82981 6.3733C3.81574 5.17613 3.4663 4.03464 3.58825 2.67275C3.66799 1.77487 4.15815 0.939638 4.06199 0.00464019L4.99306 0L4.99072 0.00464019Z" fill="#2E2E2E"/>
<path d="M50.1797 54.5592C49.6004 54.6079 47.2551 56.9884 46.0895 57.2482C42.3817 58.0742 42.1964 55.4362 41.7954 52.5895C42.8766 51.861 44.0797 51.2949 45.0999 50.4689C47.4334 48.578 50.7191 44.4807 50.7449 41.4205C50.7496 40.9612 50.7308 40.344 50.4236 39.9751C50.0436 39.5227 48.4137 39.0239 47.8086 38.9705C42.2035 38.4717 41.134 44.1072 40.6697 48.4063C40.5665 49.3576 40.6837 50.3274 40.6392 51.2786C39.361 51.5222 39.2438 50.3715 38.9975 49.4225C37.8554 49.4249 38.3103 51.0373 38.7583 51.6313C39.2789 52.3203 40.4797 52.3157 40.7588 52.9004C41.0238 53.4572 40.7822 54.195 40.93 54.8214C41.1551 55.7842 42.2293 57.7563 43.165 58.1763C45.8269 59.3665 48.9648 56.6844 50.9583 55.2181L50.1797 54.5592ZM42.0463 46.9841C42.2105 45.8658 42.1612 44.7127 42.5787 43.5689C43.165 41.9634 44.6402 40.2442 46.4437 39.9635C47.5225 39.7941 49.6942 40.0633 49.7763 41.4298C49.9663 44.5805 44.8841 49.7822 42.1636 51.2531C41.0121 51.2415 41.9408 47.7057 42.0463 46.9841Z" fill="#2E2E2E"/>
<path d="M130.464 45.2485V46.1742L126.477 45.9446C126.855 48.5361 126.625 51.3434 127.884 53.7099C127.652 53.9953 127.488 54.16 127.087 54.0417C125.853 53.6728 125.654 47.0211 125.417 45.7149C124.059 44.3878 122.059 44.3576 120.872 42.7892L121.081 42.1118C121.805 41.599 124.144 44.3135 125.302 44.0838C125.267 43.0421 125.351 41.9865 125.314 40.9424C125.1 35.1863 124.409 26.7899 125.058 21.2193C125.098 20.8806 125.086 20.6207 125.424 20.4212L126.205 20.804C125.966 21.8573 126.749 23.1543 126.723 24.0266C126.705 24.6299 126.088 25.3212 125.999 26.3282C125.696 29.7317 125.839 34.9241 125.999 38.4112C126.088 40.3601 126.559 42.4157 126.515 44.3971C126.791 45.2137 129.676 45.2949 130.464 45.2485Z" fill="#2E2E2E"/>
<path d="M82.0323 36.4301C81.5046 36.0542 81.6946 35.3698 81.6829 34.8083C82.5107 34.7202 82.5858 35.4069 83.4277 35.516C84.9756 35.7178 86.6783 35.2793 88.2261 35.2468C89.0775 30.0707 89.3448 24.8691 89.1924 19.6164L90.2407 18.5584C91.4063 18.8415 90.4424 19.5839 90.3462 20.2938C89.8842 23.6603 89.9522 27.3562 89.6567 30.7482C89.5277 32.2354 89.7482 33.7782 89.4199 35.27L94.6592 35.0288L95.0438 35.6204C95.0297 36.1958 92.2248 35.915 91.6502 35.9707C90.8294 36.0496 90.0507 36.4278 89.2158 36.4626L87.5413 49.6569L86.5891 49.5549C85.8809 49.07 86.9316 46.1559 87.0488 45.3416C87.2927 43.6409 87.3396 41.7431 87.5601 40.0471C87.7078 38.9195 88.327 37.7595 88.0104 36.4324H82.03L82.0323 36.4301Z" fill="#2E2E2E"/>
<path d="M61.7132 40.641C61.9195 41.9867 62.2057 43.3486 62.4285 44.6896C62.527 45.2882 62.3558 45.9447 62.466 46.5085C62.5528 46.954 63.4815 50.2137 63.648 50.3274C63.7864 50.4225 64.2179 50.3738 64.4008 50.3088C65.1138 50.0536 68.3526 44.4924 69.3681 43.6177C70.4469 42.9193 71.6125 42.7616 72.3114 43.9611C73.5637 46.1095 73.0712 49.2764 73.5919 51.5176C73.8194 52.499 74.3705 52.6869 75.3391 52.6846L75.3532 53.5964C74.3447 53.6614 73.6388 53.6358 73.0642 52.7287C72.2269 51.4086 72.3981 47.6291 72.0135 45.8798C71.779 44.8056 70.9441 43.2836 69.8231 44.5341C68.444 46.135 66.9384 49.3599 65.5078 50.7056C64.3328 51.8123 63.3361 51.8935 62.5692 50.3506C61.7179 48.6384 61.7718 46.6848 61.4997 44.9123C61.4341 44.4831 61.1081 44.1443 61.0565 43.7267C60.9322 42.7198 61.148 41.6456 60.8102 40.6085L61.7132 40.641Z" fill="#2E2E2E"/>
<path d="M107.478 38.0538L108.625 38.4204C108.55 38.7986 108.414 39.1559 108.405 39.5526C108.327 43.0397 108.079 47.9861 108.475 51.3364C108.552 51.9837 108.97 52.6588 108.885 53.3688C109.495 53.6054 109.263 52.9651 109.505 52.9024C111.142 52.4895 109.945 54.6193 109.033 54.7423C108.341 54.6239 107.476 52.4268 107.476 51.8607V38.0561L107.478 38.0538Z" fill="#2E2E2E"/>
<path d="M109.997 27.2145C110.428 27.6112 111.2 30.4185 110.292 30.052C109.596 29.6344 109.615 29.0079 109.472 28.3096C108.806 28.6553 109.275 30.4812 109.117 30.6297H108.182C107.858 29.5787 108.28 25.6322 109.997 27.2122V27.2145Z" fill="#2E2E2E"/>
</svg>
