<svg width="199" height="111" viewBox="0 0 199 111" fill="none" xmlns="http://www.w3.org/2000/svg">
<path d="M80.7961 43.146C78.3255 41.6258 75.507 42.1325 72.876 40.5084C70.9929 39.3475 69.9159 37.9456 68.3889 36.4732C68.1765 36.2676 67.9577 36.1367 67.6828 36.0391C67.8223 35.0942 68.241 34.739 67.4536 33.8854H66.812C66.5662 35.6715 66.2121 34.8885 65.3684 35.3496C64.6206 35.7587 64.6247 37.902 64.7289 38.6725C64.8372 39.4617 65.5017 40.6414 65.6892 41.4451C66.8099 46.2301 67.2016 51.7088 68.0806 56.6848C69.2409 63.258 69.5388 69.8125 69.9513 76.5891C70.1242 79.4178 69.7992 82.261 70.4158 85.0398C70.7825 86.7054 72.2094 87.2827 72.4385 85.0958C72.9177 80.5434 71.799 75.0544 71.2158 70.5601C69.9284 60.6287 68.9701 50.4959 68.0681 40.5292C67.9807 39.5635 68.1327 38.5001 68.0723 37.522C70.0409 39.6798 72.1198 41.6569 75.0071 42.5313C76.5757 43.0069 78.5692 42.9716 79.967 43.8106C80.319 44.0224 80.6982 44.3256 80.9273 44.6704C80.9523 45.4845 77.1735 46.9134 76.3965 47.1626C75.2924 47.5136 69.9638 48.3879 69.7367 49.445L70.0638 49.9497L79.0692 47.1294C80.2295 46.525 81.5627 46.0785 81.9397 44.6746C81.6106 44.172 81.3294 43.4721 80.7961 43.146ZM67.2391 45.1917C66.9349 44.552 67.1286 43.8376 67.0182 43.2332C66.6474 41.1834 65.6038 39.1273 65.7704 36.9924C65.9433 34.7806 66.8912 37.0671 67.012 38.0557C67.1037 38.7971 66.9474 39.5656 67.0453 40.3028C67.2016 41.4845 67.6703 42.9944 67.6723 44.2613C67.6723 44.6226 67.6786 45.0754 67.2391 45.1917ZM70.9866 76.0803L71.6053 82.1966V84.5766L71.3866 82.8279C70.4075 80.8446 70.7012 78.2028 70.9866 76.0803Z" fill="#2E2E2E"/>
<path d="M183.151 40.7473C183.099 40.4565 182.472 39.2603 182.259 39.0422C181.145 37.8833 178.314 37.7234 176.806 37.927C175.599 38.091 175.718 38.3153 174.11 38.334C170.754 38.3714 170.623 42.1886 169.742 44.3651C169.444 45.1003 168.623 45.9269 168.444 46.8054C168.031 48.8428 168.994 51.8106 170.046 53.5925C172.277 57.3744 177.633 56.0888 179.914 53.0463C181.857 50.4523 183.713 43.8854 183.151 40.7473ZM173.795 39.389C174.064 39.632 172.016 41.4866 171.719 41.6673C171.333 40.9571 173.414 39.0401 173.795 39.389ZM179.207 52.3422C178.474 53.2934 176.095 54.9881 174.922 55.1376C174.091 55.2435 172.148 54.5437 171.521 53.9891C169.958 52.6018 170.037 48.9113 170.252 46.9466C170.485 44.8096 171.598 43.2976 173.058 41.7525C173.562 41.2187 174.197 40.7888 174.731 40.2717L175.564 41.0401C176.97 40.5396 175.364 40.091 176.066 39.2624C177.978 38.2738 181.882 38.685 182.318 41.1627C182.774 43.7545 180.847 50.2197 179.207 52.3422Z" fill="#2E2E2E"/>
<path d="M5.21408 0.00207683C5.59113 0.240912 5.24741 4.13704 5.19116 4.84731C4.75787 10.3717 4.5079 15.977 3.98503 21.4723C3.43508 27.2604 3.14136 33.1295 2.51226 38.8699C2.2102 41.63 1.3332 44.7058 1.05198 47.3662C0.835336 49.4222 1.3957 52.3049 1.05198 54.2093C0.960324 54.7223 0.720764 54.7867 0.220812 54.7265C0.410377 53.4368 0 52.1283 0 50.8926C0 49.0713 0.374964 47.2312 0.627023 45.4929C1.63318 38.5438 2.21437 31.3227 2.9143 24.3466C3.59757 17.5533 3.83088 10.6375 4.37874 3.83175C4.43499 3.12978 4.19126 0.375906 4.57872 0.0913804L5.212 0L5.21408 0.00207683Z" fill="#2E2E2E"/>
<path d="M138.837 51.5093C138.124 51.1272 137.031 51.8894 136.764 50.257L136.718 39.9373L135.922 39.3869C135.206 40.5437 135.21 41.9185 134.868 43.2124C134.791 43.5011 134.737 43.7711 134.36 43.742C133.92 42.4419 134.264 40.7431 132.923 39.8916C132.039 39.3329 129.99 39.1751 128.99 39.3911C128.8 39.4326 127.323 41.2394 127.167 41.553C126.438 43.0027 126.323 46.9964 126.544 48.6205C126.694 49.744 128.061 51.8894 129.204 52.1885C132.104 52.9444 133.983 49.067 134.804 46.878L135.708 43.9497C136.487 45.7794 134.456 53.9351 138.62 52.1324C138.803 52.0535 139.189 51.7149 138.837 51.5093ZM134.418 45.2477C134.314 46.1054 132.41 49.8499 131.756 50.4771C130.04 52.1241 128.3 51.1874 127.713 49.1148C127.469 48.2591 127.461 44.2051 127.606 43.2353C127.759 42.2259 128.925 40.3505 129.975 40.2052C132.873 39.8085 133.408 41.8479 133.202 44.2467C133.158 44.77 132.6 45.1356 133.006 45.8126C134.054 45.6111 134.185 45.1605 134.047 44.1553C134.387 44.1594 134.443 45.0442 134.418 45.2477Z" fill="#2E2E2E"/>
<path d="M143.203 23.9436C143.209 23.8481 143.388 23.5989 143.419 23.331C143.534 22.3549 143.046 21.1877 144.634 21.3808C145.059 22.1763 145.3 23.6799 145.038 24.5272C144.88 25.0402 144.225 24.9135 144.228 25.387L144.346 36.6933C144.738 37.3558 147.302 37.0671 148.104 37.0962C149.465 37.146 150.702 37.4472 152.154 37.1066L152.164 37.8189C149.635 38.9591 146.954 37.5074 144.242 37.9352C143.978 38.8137 144.492 39.5074 144.613 40.1595C144.911 41.7732 145.061 43.0463 145.761 44.6143C146.342 45.9123 146.796 46.8012 148.406 46.8531C148.15 48.0743 146.831 47.7503 146.111 47.1127C144.344 45.5468 143.442 39.659 143.098 37.3163C142.54 36.822 141.755 36.5687 141.174 36.1367C140.676 35.767 139.474 34.5002 139.036 34.3132C138.638 34.1429 138.195 34.2655 137.795 34.0972C136.887 33.7151 136.797 31.9394 138.268 32.3776L142.213 35.7213L143.203 36.0723C143.423 32.1222 142.905 27.8605 143.203 23.9457V23.9436Z" fill="#2E2E2E"/>
<path d="M14.1657 33.3766H14.9968C15.1926 36.5001 14.7344 39.9227 15.001 43.0131C15.026 43.3017 15.7113 47.4492 16.4529 46.6434C16.5592 45.6236 17.1758 44.5188 17.6612 43.5967C18.4111 42.174 19.8047 39.605 20.9213 38.552C22.0378 37.4991 23.3002 37.6902 23.8522 39.173C24.8917 41.9705 24.8084 46.4668 26.3582 49.1148C26.4624 49.2913 26.5999 49.4242 26.7603 49.5447C27.1894 49.6984 27.3081 48.255 28.1101 49.2394C27.6664 50.905 26.0249 50.7638 25.3146 49.3245C24.2168 47.1003 23.9751 43.3038 23.2669 40.7909C23.1669 40.4336 22.819 39.092 22.5648 39.0027C22.2961 38.9716 21.9441 38.8823 21.6983 39.0214C21.5983 39.0775 20.4775 40.6143 20.3171 40.8552C19.0381 42.7555 18.284 45.281 17.1633 47.0421C16.3321 48.3484 14.9552 47.4305 14.6323 46.2841C14.5656 46.0452 14.1636 44.3672 14.1636 44.2633V33.3807L14.1657 33.3766Z" fill="#2E2E2E"/>
<path d="M42.783 41.254C42.8747 41.2685 44.335 41.7088 44.5391 41.7857C45.9515 42.3028 46.6431 44.1782 46.9993 45.553C47.1034 45.9559 47.4117 47.4118 47.4617 47.8022C47.8325 50.7326 43.3455 51.5322 41.2894 52.4128C40.5645 52.7243 38.2751 54.0846 37.7918 54.1158C37.1773 54.1553 37.4585 53.337 37.7773 53.0608C38.1564 52.7306 40.2166 51.8084 40.827 51.5385C41.7873 51.1127 45.7473 49.9165 46.1827 49.2041C46.5514 48.5997 46.3285 46.6953 46.1681 45.9705C46.0973 45.6465 45.2495 43.3371 45.1203 43.1792C44.9516 42.9715 42.9372 42.3589 42.5581 42.3111C40.7728 42.0889 37.5002 42.9861 38.4689 40.0681C38.7876 39.1086 41.9519 34.8698 42.7747 34.199C43.4246 33.6674 44.8891 32.9716 45.5994 33.6861C45.9598 34.5729 46.1869 36.3901 44.762 36.0744V34.415C44.3745 34.361 44.1454 34.4192 43.8142 34.6123C43.3017 34.9114 41.1644 37.5406 40.727 38.1699C40.1999 38.9259 39.7542 39.9996 39.1667 40.768L39.4542 41.2561C40.4958 41.3641 41.7831 41.1086 42.7851 41.2561L42.783 41.254Z" fill="#2E2E2E"/>
<path d="M120.932 49.5468C121.08 51.9393 116.13 51.8313 115.016 50.7742C114.668 50.444 113.781 48.1844 113.614 47.6112C113.027 45.607 112.735 43.3121 112.51 41.2478C112.285 40.8428 111.66 41.5821 111.245 41.659C110.283 41.8334 108.002 41.7732 107.221 41.1273C106.738 40.7306 105.994 39.2706 105.754 38.6497C105.561 38.145 104.865 35.9934 105.354 35.686L106.483 35.8501C106.602 37.47 106.423 38.8179 107.615 40.1118C108.652 41.2395 111.254 41.1211 112.2 39.9103C112.577 39.4285 112.687 38.1159 113.554 38.55C113.781 39.578 113.402 40.4794 113.445 41.5593C113.497 42.8386 114.185 46.2799 114.539 47.5177C114.668 47.9725 115.508 49.9559 115.82 50.1802C116.203 50.4564 118.601 50.4627 119.157 50.3609C119.815 50.2404 120.176 49.445 120.934 49.5426L120.932 49.5468Z" fill="#2E2E2E"/>
<path d="M189.823 41.254L191.073 41.5697C190.942 41.9622 190.702 42.1284 190.644 42.5894C190.444 44.1325 190.525 48.2218 191.146 49.58C191.888 51.2062 192.627 50.2799 193.321 49.1937C194.537 47.2851 195.077 44.7016 196.335 42.766L197.956 42.5894C199.17 44.8719 198.266 47.6133 198.56 50.0722C198.672 51.011 199.704 51.9019 198.154 52.0348C197.325 49.8334 197.931 47.3931 197.731 45.0941C197.677 44.4731 197.647 43.7275 197.006 43.5406C195.935 45.092 194.308 51.1065 192.415 51.4035C191.596 51.5322 190.704 51.1086 190.357 50.3692C190.302 50.255 189.827 48.9051 189.827 48.8241V41.2582L189.823 41.254Z" fill="#2E2E2E"/>
<path d="M94.512 36.7016C94.5932 37.7857 94.3682 39.0671 94.4974 40.12C94.7494 42.1948 95.4806 47.1979 96.5097 48.9071C96.6118 49.0774 96.9826 49.0982 97.0117 49.2498C97.22 50.2923 96.1472 50.0369 95.5764 49.202C94.4328 47.5301 94.3391 43.9829 94.0703 41.9954C93.8454 40.3194 93.1392 38.417 93.5516 36.6787C93.8016 35.6258 94.6703 35.252 95.541 35.9685C95.6535 36.7078 95.0661 36.7057 94.512 36.6995V36.7016Z" fill="#2E2E2E"/>
<path d="M159.16 52.9216C159.26 53.0296 159.468 53.3432 159.345 53.4844C157.989 54.7596 157.537 53.555 157.785 52.1449C157.977 51.0566 158.735 48.8718 159.07 47.6216C159.322 46.6808 160.037 43.3163 160.506 42.8324C161.003 42.3153 161.587 42.3651 161.37 43.0671C161.126 43.8604 160.72 44.7285 160.524 45.5468C160.316 46.4211 160.249 47.6589 160.012 48.5603C159.683 49.8147 159.137 51.1792 158.631 52.3816L158.702 52.6579C158.835 52.7638 159.049 52.8032 159.158 52.9195L159.16 52.9216Z" fill="#2E2E2E"/>
<path d="M167.138 29.2313L167.126 30.0454C164.803 30.3258 162.32 32.3112 161.834 34.6227C161.549 35.1066 161.099 34.2967 161.091 33.9021C161.047 32.1222 165.259 28.7661 167.14 29.2292L167.138 29.2313Z" fill="#2E2E2E"/>
<path d="M95.7201 33.3475C95.0869 33.3828 92.5559 33.6362 92.6913 32.6476C93.8557 31.1274 96.2534 30.9343 95.7201 33.3475Z" fill="#2E2E2E"/>
</svg>
