<svg width="290" height="62" viewBox="0 0 290 62" fill="none" xmlns="http://www.w3.org/2000/svg">
<path d="M171.869 34.6608C170.831 30.5113 166.188 23.5068 163.484 20.0532C160.599 16.3695 153.662 12.0415 152.065 8.28454C151.954 8.02482 151.795 7.64416 151.946 7.38445C151.983 7.321 152.808 6.84915 153.095 6.45263C153.749 5.55254 153.913 3.79795 153.644 2.73727C153.392 1.74994 151.161 0.122239 150.759 1.5378C150.666 1.86493 150.533 3.42126 150.513 3.87131C150.485 4.5553 150.767 6.74605 150.693 7.00974C150.462 7.86621 148.5 7.83449 147.779 7.61442C145.744 6.98793 144.864 0.748736 143.59 0.108361C141.749 -0.815523 142.433 4.5097 144.379 3.18335C144.65 4.83484 145.956 8.28652 147.838 8.54624C148.97 8.70286 150.018 8.43323 151.088 8.16757C153.279 12.7335 157.918 15.2771 161.3 18.8676C164.312 22.0655 169.987 30.6858 171.072 34.8631C172.239 39.3497 171.417 45.567 170.086 50.0199C168.673 54.7464 166.501 57.183 161.32 57.3059C156.899 57.413 153.406 55.6604 149.76 53.765C148.96 53.3507 146.946 52.0659 146.32 51.8935C146.172 51.8518 146.029 51.7765 145.871 51.7586L145.569 52.2523C150.775 56.1065 161.498 60.8607 167.371 56.4256C172.024 52.9125 173.181 39.9127 171.869 34.6608ZM151.714 1.79951C152.011 1.72218 151.854 2.00173 151.979 2.11077C152.265 2.35859 152.74 2.52513 152.859 2.92958C153.22 4.15482 152.8 5.72502 151.809 6.55176C150.929 6.54383 151.452 2.46169 151.714 1.79951Z" fill="#2E2E2E"/>
<path d="M17.0416 6.6192C17.4637 7.07717 18.9834 11.0186 17.1981 10.1323C16.9624 5.00537 13.6335 6.75203 11.1508 9.23224C5.96143 14.4187 1.47347 27.7853 0.879043 35.0316C0.466905 40.0595 0.871118 50.2975 6.36762 52.4903C14.6243 55.7833 20.1842 50.4264 23.1147 43.2038C24.2362 40.4441 25.0862 37.6526 21.7594 36.2945C18.9656 35.1545 15.4921 35.5055 13.5483 38.0372C12.514 39.3854 12.5418 40.0674 13.1382 41.6475C10.5286 41.4354 11.9553 38.408 13.1303 37.1788C15.724 34.4646 20.2119 33.9214 23.3109 36.13C25.8154 37.9143 24.8861 41.3224 23.8459 43.7371C20.7429 50.9399 15.615 56.2096 7.15821 53.6798C4.40996 52.857 2.87237 51.5902 1.77267 48.9573C-0.846787 42.6903 -0.240468 33.0015 1.50914 26.5422C2.8367 21.6393 8.65816 7.80478 13.6989 6.22466C14.6104 5.93917 16.3521 5.86978 17.0396 6.61721L17.0416 6.6192Z" fill="#2E2E2E"/>
<path d="M288.768 40.6146C287.651 38.1621 284.03 35.442 283.86 33.0213C283.787 31.9745 284.928 31.1656 285.517 30.2972C285.937 29.6767 289.158 25.085 286.797 25.42C284.768 25.7095 283.351 29.0977 282.893 30.8523C282.719 31.5145 283.204 31.9071 282.404 32.4384C280.603 33.6339 277.541 32.9975 277.514 30.4499C277.502 29.3218 278.613 24.7222 279.311 23.8915C279.479 23.6912 279.909 23.6456 279.923 23.485L279.689 22.8348C279.224 22.7118 278.91 22.8467 278.625 23.2114C277.91 24.1234 276.82 28.6061 276.743 29.8531C276.553 33.0074 278.397 34.1573 281.407 33.7271C281.879 33.6597 282.196 33.283 282.574 33.3087C283.26 33.3583 283.711 35.3369 284.102 35.9654C284.762 37.0281 286.178 38.0729 286.927 39.086C288.451 41.1459 289.796 45.3648 288.435 47.7003C286.642 50.7773 278.627 53.8721 275.205 54.685C274.613 54.8257 272.31 55.0042 271.979 55.2242C271.633 55.4562 271.736 55.9935 272.114 56.1005C272.582 56.2354 273.188 55.817 273.683 55.7397C277.896 55.0656 281.738 53.6283 285.431 51.4335C290.197 48.6024 291.098 45.7277 288.768 40.6146ZM286.646 26.5799L284.27 30.3468C283.781 29.6092 285.982 25.9653 286.646 26.5799Z" fill="#2E2E2E"/>
<path d="M81.4835 41.7664C81.0634 38.6855 78.5847 39.3813 76.6409 38.0847C75.3767 37.2421 75.1033 35.8781 73.6727 35.3765C73.1971 35.3805 72.5016 36.2945 72.3015 36.7088C69.3611 42.7993 68.7944 51.6734 69.4126 58.4042C69.4938 59.3004 69.9713 60.4939 70.011 61.4733L70.6133 61.3861C71.2573 60.9122 70.4429 58.0434 70.3974 57.2187C70.3498 56.3661 70.3597 50.4303 70.6014 50.1745H73.4745C73.6984 50.1745 76.7241 48.1345 77.2769 47.8331C78.2597 47.2938 80.9842 46.4691 81.3487 45.563C81.6024 44.9326 81.5845 42.5158 81.4835 41.7664ZM80.4076 45.4144C79.187 46.1955 77.7841 46.5781 76.5022 47.2562C75.2301 47.9263 72.9494 50.0516 71.398 49.2685C71.3603 49.2487 70.8154 48.6876 70.8055 48.646C70.6827 48.0789 70.7322 45.7811 70.8115 45.1289C70.8511 44.8017 71.1047 44.548 71.1483 44.2783C71.5961 41.5543 72.2559 38.8084 73.5716 36.3896C73.7559 36.2548 76.0821 38.8579 76.5636 39.1534C77.477 39.7105 78.7729 39.6391 79.6487 40.1387C81.0099 40.9139 80.4611 44.0464 80.4076 45.4144Z" fill="#2E2E2E"/>
<path d="M87.8399 20.2395C87.7349 24.2305 87.9805 28.2512 87.8498 32.2421C87.7388 35.6283 87.5129 39.5459 87.2454 42.9381C87.186 43.6995 86.437 44.8137 87.2454 45.2201C87.2316 44.7086 87.6041 43.979 87.83 43.527C88.676 41.8338 90.8952 37.722 92.6131 37.0082C93.3839 36.689 95.4149 36.3797 95.728 37.4285C96.0628 39.4865 96.3957 41.6197 96.154 43.7232C96.0707 44.4409 95.5001 45.7732 95.3832 46.5207C95.3178 46.937 95.3911 47.3811 95.3713 47.7994C96.3125 48.186 97.5291 46.7506 97.5608 48.0829C96.8455 48.7768 95.833 48.5945 94.9195 48.5945C93.6217 48.2495 95.2881 43.9532 95.3812 42.95C95.5516 41.138 95.1454 39.5479 94.9869 37.8092C92.2089 36.7406 90.2513 40.8624 89.1575 42.8687C88.6106 43.8719 87.5783 46.9112 86.6569 47.3058C86.544 47.3534 86.1061 47.2265 86.0784 47.1809C86.0031 47.0599 86.0229 44.7086 86.0586 44.3279C86.3597 40.9556 86.7005 37.4345 86.8511 34.0185C87.0453 29.5993 87.0889 25.1762 87.0513 20.7372C87.1384 20.2475 87.3683 20.186 87.8438 20.2415L87.8399 20.2395Z" fill="#2E2E2E"/>
<path d="M196.16 28.0014C194.477 26.673 189.51 25.1147 187.487 25.4002C187.11 25.4537 186.805 25.763 186.47 25.7868C185.846 25.8304 185.343 25.1326 184.346 25.4319C184.136 25.4934 183.264 26.4252 183.096 26.6572C182.034 28.1203 180.883 30.1743 181.237 32.028C181.342 32.5692 181.873 32.6783 181.986 33.0629C182.137 33.5685 181.959 34.2306 182.048 34.7878C182.626 38.4 184.198 40.6403 188.256 40.0495C190.409 39.7363 194.543 36.2747 196.025 34.6391C197.751 32.7318 198.434 29.7936 196.16 28.0014ZM195.983 33.3068C195.478 34.0621 194.297 34.9543 193.602 35.5887C192.324 36.7525 189.912 38.9274 188.22 39.2208C186.28 39.5559 184.348 38.9591 183.538 37.0618C182.86 35.4698 182.819 31.4273 183.017 29.6509C183.142 28.5287 184.083 27.3134 185.198 27.0557C185.868 26.901 186.031 27.4244 186.274 27.3709C186.524 27.3194 186.724 26.1377 188.26 26.1774C189.968 26.219 194.6 27.7079 195.88 28.8757C197.208 30.0851 196.924 31.9031 195.983 33.3068Z" fill="#2E2E2E"/>
<path d="M266.687 34.8591C265.991 35.0336 263.842 35.3706 263.182 35.2873C262.787 35.2378 261.299 34.869 260.98 34.7144C260.317 34.3932 259.3 33.164 259.302 32.4185C259.302 31.6374 260.802 32.0161 261.371 31.9209C263.675 31.5383 266.188 28.2809 267.301 26.3538C268.799 23.7665 270.004 20.2593 265.367 22.4362C263.927 23.1143 261.016 26.106 260.126 27.5037C259.486 28.5109 259.066 29.6429 258.611 30.7393L258.105 30.4122L258.113 28.5604C257.267 28.2948 257.027 29.8947 257.21 30.5509C257.465 31.4649 258.222 31.5026 258.329 31.6552C258.551 31.9705 258.46 32.704 258.605 33.1263C258.951 34.1394 259.896 35.214 260.903 35.5847C264.006 36.7247 267.236 35.6065 270.166 34.4784L270.2 33.7171C269.942 33.4515 267.244 34.7183 266.687 34.8591ZM261.777 26.7761C262.815 25.5092 265.738 22.7515 267.368 22.6444C268.752 22.5532 266.499 25.991 266.199 26.443C264.91 28.3979 262.484 31.4887 259.887 31.0525C259.084 30.4915 261.299 27.357 261.777 26.7761Z" fill="#2E2E2E"/>
<path d="M58.5151 44.6233C58.1624 44.6015 58.3685 45.0912 58.208 45.4065C57.7305 46.3383 55.5945 49.4886 54.7464 49.8732C54.3343 50.0616 52.7888 50.0596 52.3747 49.8732C51.0867 49.2943 51.273 45.3728 51.4018 44.1475C51.6475 41.7982 53.5497 37.0419 56.5892 37.7259C57.6374 37.9619 57.5006 38.852 57.9068 39.3338C58.1644 39.6411 58.9233 39.4111 58.7133 40.2597L57.3679 40.218L56.8329 38.8699C55.7074 38.2196 54.5978 38.9928 53.8469 39.8552C52.7432 41.1221 52.2201 44.4251 52.1666 46.1004C52.0339 50.3708 54.1084 50.012 56.1354 47.0976C57.8216 44.6729 58.3546 42.1768 59.2086 39.4627C59.4206 38.7866 59.5257 38.5368 60.2984 38.6716C60.2687 39.0919 60.3579 39.5598 60.3064 39.9682C60.1795 40.9397 59.6465 42.4306 59.5158 43.3406C59.4088 44.0861 59.2027 46.2114 59.3513 46.8597C59.4325 47.2106 60.1023 48.0413 60.3876 48.1999C60.77 48.414 62.0203 48.4299 61.8836 49.0782C61.7469 49.7265 60.0072 48.9632 59.6743 48.761C59.486 48.648 58.5171 47.5814 58.5171 47.4941V44.6194L58.5151 44.6233Z" fill="#2E2E2E"/>
<path d="M242.656 27.5712C242.61 28.1739 242.012 28.384 241.716 28.9094C241.213 29.8055 240.042 33.7588 239.898 34.8215C239.832 35.3052 239.902 35.8068 239.884 36.2926C241.901 35.4718 242.903 33.2453 244.247 31.6394C245.59 30.0335 247.11 28.1005 249.288 27.5652C252.081 29.6013 249.941 34.2267 251.176 37.0856C250.877 37.2997 250.062 37.0539 249.985 36.7466C249.66 35.4718 250.134 32.4642 249.967 30.8623C249.918 30.3884 249.597 28.5644 249.107 28.5605C246.957 28.5406 243.115 35.2933 241.17 36.6911C240.684 37.04 239.765 37.6447 239.269 37.0063C239.109 36.8318 239.109 36.6217 239.081 36.4036C238.877 34.877 240.268 29.2147 241.259 28.0569C241.659 27.589 242.059 27.3194 242.656 27.5731V27.5712Z" fill="#2E2E2E"/>
<path d="M207.047 24.853C207.358 24.514 207.982 24.6131 208.351 24.8233C208.442 25.4676 208.472 26.564 207.889 26.9982C207.56 27.244 207.144 26.8574 207.021 27.2975C206.722 29.3911 205.882 34.4547 207.457 36.0269C208.495 37.0637 209.801 36.3976 210.665 35.5054C212.304 33.8163 214.497 29.405 215.393 27.1508C215.639 26.5303 216.475 23.2828 216.804 23.2075C217.574 23.3165 217.273 24.1809 217.131 24.7281C216.413 27.476 212.837 35.2477 210.546 36.7743C208.436 38.1819 206.233 36.9706 205.852 34.5597C205.553 32.6684 205.777 28.5664 206.256 26.7325C206.306 26.5402 206.98 24.9283 207.049 24.853H207.047Z" fill="#2E2E2E"/>
<path d="M231.957 27.1746C231.518 27.0695 231.52 27.4304 231.325 27.6306C230.358 28.6239 229.915 29.9582 228.506 30.5589C226.847 31.2687 225.571 30.3666 224.525 29.1592C223.715 28.2234 221.638 25.5112 223.435 24.7955C223.578 26.2904 224.374 27.7753 225.421 28.8578C226.51 29.9859 227.678 30.4816 228.995 29.2643C229.724 28.5922 231.773 25.0711 232.156 24.8927C232.966 24.512 232.958 25.2793 232.964 25.8879C232.982 28.2214 231.724 30.9376 231.42 33.277C231.355 33.7826 231.208 35.5649 231.555 35.8068C232.748 36.237 233.917 36.0011 235.134 35.9932C235.429 36.243 235.405 36.3381 235.128 36.5899C234.252 37.3829 230.808 37.032 230.578 35.7929C230.071 33.0748 231.494 29.8293 231.959 27.1746H231.957Z" fill="#2E2E2E"/>
<path d="M115.977 37.0915C115.519 36.9765 115.65 37.1807 115.525 37.3413C114.629 38.4852 111.156 44.9068 111.035 46.1341C110.952 46.9687 111.247 47.5556 112.032 47.8787C115.218 49.1952 118.78 47.4346 121.923 47.2027V47.9898C119.997 48.1761 117.964 48.9989 116.054 49.1595C114.261 49.3102 110.005 49.0722 110.023 46.5048C110.023 46.2709 110.439 44.9504 110.552 44.6431C111.12 43.1185 113.898 37.8429 114.905 36.7069C117.625 33.6398 117.237 39.4884 116.276 39.4627C115.6 39.4448 116.115 37.5713 115.979 37.0875L115.977 37.0915Z" fill="#2E2E2E"/>
<path d="M44.4469 49.9783C44.1596 50.688 44.0447 50.8863 43.2581 50.6761C42.2515 50.4085 40.4108 49.3201 40.1373 48.2415C39.955 47.5238 40.0125 44.776 40.0878 43.9274C40.2245 42.381 41.0686 40.678 40.8804 39.0721C39.2457 40.9912 37.1354 43.2732 34.839 40.6581C34.1633 39.8889 32.9744 38.1046 34.9143 38.5011C35.0331 39.873 35.901 41.0725 37.401 40.8465C39.107 40.5907 40.4623 37.3968 41.6769 36.7802C42.6775 36.2727 42.3189 38.1779 42.2456 38.5526C41.8849 40.4123 41.0765 42.4008 40.9022 44.3438C40.6089 47.6249 40.7892 49.435 44.4469 49.9763V49.9783Z" fill="#2E2E2E"/>
<path d="M105.474 37.8826C105.116 39.1435 102.996 43.5547 103.778 44.6372L105.276 45.117C105.058 46.255 103.186 45.8268 102.934 45.0853C102.35 43.3664 103.707 39.2089 104.88 37.7815L105.476 37.8826H105.474Z" fill="#2E2E2E"/>
<path d="M106.071 28.5664C105.998 29.5378 107.262 29.9363 107.06 30.9435C105.798 30.8681 104.783 28.8241 105.122 27.7139C105.497 26.4866 107.207 28.1243 107.652 28.6635C107.1 29.3911 106.668 28.6536 106.073 28.5644L106.071 28.5664Z" fill="#2E2E2E"/>
</svg>
