<svg width="101" height="71" viewBox="0 0 101 71" fill="none" xmlns="http://www.w3.org/2000/svg">
<path d="M8.93539 69.3131C6.61485 71.6343 5.27982 67.8769 4.90843 66.1215C3.5734 59.8204 3.6535 51.7059 2.93501 45.117C2.21166 38.5016 0.687289 31.8475 0.0610348 25.2514C-0.0117854 24.4898 -0.0870329 21.6729 0.267359 21.1821C2.05631 20.6501 1.1412 24.5768 1.2747 25.9768C1.88397 32.423 3.43504 39.2802 4.14139 45.8497C4.81134 52.0734 4.66327 59.6028 5.88665 65.6306C6.10997 66.7356 6.62214 67.8721 7.1076 68.8852C7.5688 69.1487 8.33826 68.4499 8.47905 68.0123C9.00336 66.385 8.82616 65.0068 9.02277 63.4763C10.6637 50.6976 10.9549 38.4315 14.1857 25.822C15.9091 19.0881 19.4531 7.99231 23.2494 2.20865C23.5723 1.71782 24.849 -0.117383 25.3928 0.00593054C26.5166 0.264648 24.3781 2.41901 24.0286 2.98481C19.6594 10.0911 15.9358 22.3064 14.176 30.4064C11.8264 41.2193 11.5229 51.8799 10.2631 62.7775C10.0884 64.2887 9.95973 68.2879 8.93539 69.3131Z" fill="#2E2E2E"/>
<path d="M79.7554 52.7312C79.0151 50.879 74.3376 49.5564 72.5074 49.8272C71.9685 49.907 71.687 50.3229 71.1602 50.2963C72.1579 49.1188 70.8277 48.9495 69.7281 49.4791C65.7934 51.3723 65.6089 56.5515 66.0555 60.3403C66.2764 62.2215 67.1381 63.4546 68.4829 64.695C71.0097 67.0211 73.0026 66.5375 75.5319 64.446C78.8015 61.7427 81.4352 56.9383 79.7554 52.7312ZM78.0587 59.7093C77.0732 61.4695 73.8958 65.2632 71.7671 65.2729C70.6359 65.2777 68.228 63.3144 67.745 62.2844C67.643 62.0692 67.0338 60.4371 67.0338 60.3331V54.5301C67.0338 54.489 67.3614 54.1481 67.5192 54.1674V57.9152C67.5192 58.0216 68.495 59.7359 68.9756 59.245C69.2135 58.4471 68.5921 57.8209 68.5047 57.1777C68.1746 54.7791 69.6674 51.4279 72.2671 51.0386C74.0051 50.7775 77.9689 51.4618 78.7942 53.2123C79.7287 55.1902 79.0855 57.8789 78.0587 59.7093Z" fill="#2E2E2E"/>
<path d="M39.6027 52.7167H38.6342C38.525 52.2912 38.9595 51.4328 38.2798 51.5126C37.3866 51.6166 36.3574 52.487 35.8331 53.1906C35.2262 54.0055 33.9907 57.3857 34.8476 58.0603C35.7044 58.7349 40.3843 58.348 41.6368 58.2489C42.348 58.1933 43.1612 57.8137 43.8651 57.7871C47.3556 57.6638 48.914 60.1446 48.2732 63.4087C47.761 66.0104 42.9767 66.5206 40.9183 67.2266C40.6295 67.2968 40.1731 67.1203 40.0906 66.8591C39.7362 65.7372 42.8699 65.6743 43.5472 65.4712C45.807 64.7991 47.7416 64.0398 47.3799 61.2882C46.9066 57.6831 42.9088 59.3515 40.7047 59.4941C39.343 59.5836 35.6098 59.6658 34.5247 59.1024C33.4397 58.5391 33.4009 57.5211 33.5271 56.4524C33.6533 55.3837 34.3208 53.4227 34.9301 52.533C36.2676 50.5769 40.2144 48.6715 39.6003 52.7143L39.6027 52.7167Z" fill="#2E2E2E"/>
<path d="M89.8462 49.5735C90.737 51.1572 90.1885 53.0239 90.3414 54.7672C90.4773 56.334 90.9895 57.8935 90.9288 59.499C91.6788 60.5629 93.7542 58.3167 94.3562 57.6929C95.8733 56.1285 99.4051 50.5479 100.507 55.7609C100.798 57.1392 100.937 59.6296 100.997 61.09C101.046 62.2676 100.347 62.4078 100.002 61.5688C99.5628 60.4928 100.022 54.8059 98.7157 54.6995C96.502 55.6739 93.6498 62.004 90.8293 60.8096C90.2176 60.5508 89.7224 59.5063 89.6326 58.8583C89.3195 56.6048 89.4991 53.9112 89.368 51.6263C89.317 50.722 88.3534 49.7863 89.8462 49.5735Z" fill="#2E2E2E"/>
<path d="M23.5868 65.2896L24.917 65.0454C25.5627 66.6847 22.6936 67.1006 22.378 65.4057C21.8392 62.5138 22.8465 58.4904 22.6135 55.497C23.1693 54.7281 22.7761 50.0567 24.3248 51.8605C25.1428 52.8131 24.3854 53.0356 24.1937 53.6836C23.4655 56.1354 23.1621 60.6448 23.3344 63.2465C23.3805 63.9452 23.548 64.6005 23.5893 65.292L23.5868 65.2896Z" fill="#2E2E2E"/>
<path d="M56.596 62.6274C53.7342 62.4461 54.8872 59.1819 55.1154 57.4047C55.3557 55.5357 55.1712 52.4069 56.9577 51.2656C57.3097 51.5316 57.3461 51.6211 57.2805 52.0563C57.1398 52.9703 56.3436 54.5129 56.1712 55.555C56.0183 56.4738 55.7198 60.0354 55.8751 60.814C56.0013 61.4475 56.88 61.7618 56.5985 62.6298L56.596 62.6274Z" fill="#2E2E2E"/>
<path d="M59.7515 46.186L57.8145 46.6696L57.3606 45.3736C58.1689 44.0704 59.6447 44.8199 59.7515 46.1836V46.186Z" fill="#2E2E2E"/>
<path d="M27.7129 40.8689L28.8077 41.1059C28.9048 41.6765 29.4388 42.3874 28.8004 42.8009C27.8926 42.5615 27.5673 41.7321 27.7129 40.8689Z" fill="#2E2E2E"/>
</svg>
