<svg width="127" height="83" viewBox="0 0 127 83" fill="none" xmlns="http://www.w3.org/2000/svg">
<path d="M14.0717 2.80893C9.41088 6.5311 3.05323 18.1068 1.58386 23.8573C-0.751973 33.0009 1.87448 49.087 13.9074 49.7008C21.146 50.0691 27.3592 44.541 27.3701 37.3369C27.3737 34.8442 24.9963 31.5027 22.4818 30.9298C20.9131 30.5722 19.4546 31.5276 18.9564 32.9742C18.8625 33.2482 18.886 34.5826 18.4203 34.3993C16.7956 33.7588 19.6026 30.2021 21.1352 29.9655C23.7724 29.5598 27.8538 33.5649 28.0813 36.0843C28.6409 42.2778 23.6678 49.6919 17.1585 50.4196C10.1221 51.2078 5.33491 48.5906 2.46295 42.2956C-2.5914 31.2127 0.7535 20.3433 6.89092 10.586C8.9271 7.35133 13.698 0.535056 17.691 0.0582197C19.9835 -0.215783 21.0341 0.440757 20.664 2.8107C20.6135 3.13808 19.3968 5.90302 19.238 6.03113C19.0141 6.21083 18.7542 6.02401 18.6982 5.83185C18.4582 5.02586 21.2958 1.3197 19.1044 0.814397C17.3011 0.399834 15.4003 1.75028 14.0717 2.8107V2.80893Z" fill="#2E2E2E"/>
<path d="M118.135 8.44202C118.337 8.72314 117.783 9.44551 117.772 9.93302C117.76 10.5397 118.106 11.2675 118.15 11.8991C118.53 17.6211 118.547 23.4108 118.702 29.147C118.738 30.4886 118.435 33.5738 118.733 34.6324C118.774 34.7766 118.89 34.9367 119.054 34.9367C118.751 31.8319 121.343 33.0934 122.83 34.33C125.949 36.9223 125.417 41.3384 126.283 44.8951L127 44.9022V45.6121L125.635 45.4449C125.659 44.8969 125.271 44.3649 125.202 43.9147C124.753 40.9434 124.998 37.2533 122.475 35.0381C122.022 34.6395 119.994 33.1663 119.778 34.3157C119.653 34.9705 119.729 36.7711 119.781 37.5148C119.908 39.3314 120.191 41.9576 120.509 43.7368C120.666 44.6122 121.35 46.2135 121.364 47.0017C121.384 47.9785 120.514 47.5319 120.09 46.9964C119.056 45.6904 118.521 40.9007 118.335 39.1179C117.543 31.46 117.931 23.6865 117.617 15.9842C117.534 13.9363 116.834 10.7444 117.059 8.86548C117.153 8.08973 117.913 8.13599 118.133 8.44558L118.135 8.44202Z" fill="#2E2E2E"/>
<path d="M63.7434 32.7C63.1007 32.1947 61.4545 31.0364 60.6584 31.0347C59.8822 31.0329 59.0302 32.1218 58.6385 32.2321C57.6168 32.5186 57.411 31.9919 56.4452 33.095C53.3549 36.6233 52.5498 44.4466 54.9723 48.3698C56.9832 51.6294 60.2144 51.1508 63.2506 49.5904C71.0126 45.5978 69.9656 37.6036 63.7434 32.7ZM64.3445 47.9979C61.5754 49.9765 57.5933 51.4319 55.5481 47.8005C53.4632 44.0979 54.0498 37.3723 56.8099 33.9882C56.9182 33.8548 57.92 32.5524 58.0428 33.2498C58.0699 33.4046 56.7323 35.5361 56.5301 36.0254C55.9597 37.4115 54.5986 42.6513 56.6907 43.1175C57.9525 43.3986 56.4398 42.009 56.4218 41.9272C56.0734 40.2921 56.6366 37.7815 57.2882 36.2389C57.5807 35.545 58.1583 34.8102 58.4309 34.079L58.9327 34.054L59.2955 35.924L59.8461 36.0023C60.301 35.0344 59.2829 33.458 59.3136 32.8797C59.3353 32.4616 60.2414 31.9012 60.6566 31.8958C62.135 31.8834 64.7615 34.8156 65.6983 35.9294C69.1299 40.0038 68.7418 44.8558 64.3445 47.9979Z" fill="#2E2E2E"/>
<path d="M81.6878 37.7835C81.3719 37.7426 81.5145 38.1856 81.5073 38.4044C81.4658 39.4382 81.4622 40.7726 81.3141 41.7743C81.2618 42.1284 81.0398 43.2618 80.9513 43.5518C80.8087 44.0162 80.2654 45.1709 79.7942 45.2581C77.9025 45.6104 76.7129 44.6051 75.8789 43.066C74.5287 40.5787 74.2164 36.8956 74.8716 34.1787C75.0467 33.451 75.8843 31.1167 76.5468 30.848C76.962 30.7519 76.8555 31.2341 76.8031 31.4565C76.2183 33.9706 75.2309 35.0096 75.3644 38.0593C75.4619 40.3082 76.6082 45.2474 79.7238 44.4361C79.8032 44.0411 80.0993 43.7297 80.2058 43.3489C80.8592 40.9932 80.4423 38.3902 81.0163 35.9633C81.1697 35.3139 81.3918 34.6342 81.9622 34.2357C82.2185 34.4705 82.5163 34.6574 82.5904 35.0328C83.0777 37.5326 81.9369 41.1729 83.0579 43.6461C84.0074 45.7385 85.688 44.9165 87.031 43.7564C89.0148 42.043 91.0835 36.8191 91.7441 34.2624C92.2965 32.1273 92.1593 30.0829 92.7045 28.0012C93.1684 28.1738 93.255 28.5243 93.2623 28.9762C93.3182 33.0436 90.5203 42.3045 87.0923 44.799C85.5255 45.9395 83.6139 46.1726 82.5308 44.3418C82.3358 44.0126 81.6914 42.2227 81.6914 41.9665V37.7853L81.6878 37.7835Z" fill="#2E2E2E"/>
<path d="M98.2049 18.9233C98.1363 18.9126 96.9738 18.4536 96.9323 18.3984C96.7392 18.1493 96.8403 17.7953 97.1507 17.6992C97.8222 17.491 98.2013 18.128 98.9234 18.2152C99.3747 18.2685 101.377 18.3504 101.521 17.918L101.765 5.3477L102.359 4.7392C102.73 4.6876 103.207 5.48826 103.178 5.83521L102.442 6.2302L102.353 18.039C102.577 18.3984 103.254 17.9056 103.638 17.8682C104.646 17.7721 105.61 17.58 106.51 17.4963C106.844 17.4661 109.05 17.3967 109.128 17.4999C108.992 18.6048 107.528 18.1173 106.707 18.2241C106.283 18.2792 105.907 18.5052 105.431 18.5675C104.44 18.6956 103.46 18.4749 102.447 19.0069L102.263 25.9566C102.922 31.8726 102.34 37.8331 103.176 43.7384C103.371 45.1191 103.606 46.4393 104.077 47.7452C104.752 47.9445 104.98 46.772 105.519 47.4819C105.507 48.1544 104.969 48.4765 104.346 48.4765C102.983 48.4783 102.949 46.4962 102.77 45.5603C101.164 37.1392 101.835 28.1914 101.555 19.5354L101.275 18.9215C100.339 18.8112 99.0949 19.0728 98.2067 18.9215L98.2049 18.9233Z" fill="#2E2E2E"/>
<path d="M35.657 35.0257C35.6805 35.2303 35.9964 36.6662 36.0686 36.9331C36.4477 38.3333 37.1715 39.2176 38.7727 38.8066C40.5272 38.3565 43.2385 33.1237 43.7981 31.3996L44.605 31.5455C45.022 32.1202 43.9732 34.6984 43.8216 35.4225C43.531 36.8103 43.3035 38.5611 43.2313 40.0005C43.1591 41.4399 43.0165 45.4859 43.6465 46.5445C44.3451 47.7171 45.9029 46.984 45.9462 47.3043C46.0618 48.1672 44.2458 48.0498 43.7223 47.8932C43.2945 47.7651 42.5959 46.283 42.5255 45.8702C42.2602 44.3134 42.3919 39.9436 42.5075 38.2248C42.5724 37.2516 43.0725 36.3317 42.8739 35.2962L41.2511 37.6964C40.5471 38.2978 39.798 39.4383 38.8232 39.5717C37.5253 39.7496 36.361 39.5361 35.7599 38.3049C35.5126 37.796 35.009 35.7677 34.9476 35.1912C34.8447 34.2269 34.5794 31.453 35.6552 31.2021C35.7527 32.4263 35.5216 33.8265 35.6552 35.0275L35.657 35.0257Z" fill="#2E2E2E"/>
</svg>
