<svg width="232" height="85" viewBox="0 0 232 85" fill="none" xmlns="http://www.w3.org/2000/svg">
<path d="M142.19 35.2493L114.961 40.5733C114.968 40.0249 115.369 39.9781 115.669 39.7172C122.296 33.9651 130.727 29.4906 137.487 23.3974C138.182 22.7753 140.687 20.5347 140.901 19.799C141.248 18.5951 140.092 18.575 139.244 18.4212C131.007 16.9363 119.263 19.3375 111.087 21.9058L99.1555 26.3135C106.651 19.3107 114.948 13.3112 122.55 6.44212C124.688 4.50915 126.986 2.58287 128.642 0.128209C128.115 -0.567391 124.434 1.77357 123.706 2.21501C113.091 8.70282 102.462 17.5516 93.1099 26.153C91.1726 27.9321 89.1819 30.554 87.0108 31.8783C83.9646 33.7243 79.9698 35.1022 76.7432 36.7408C70.1898 40.0717 63.7166 43.5965 57.3102 47.2685L56.7959 48.4791C57.0898 49.0008 66.342 48.8603 67.7114 48.8202C68.159 48.8068 69.1811 48.0845 68.9005 49.0008L61.1648 54.5188C45.3325 65.8089 23.341 79.5269 4.84332 82.6906C3.61415 82.8979 1.60338 82.7641 0.547898 83.132C0.11368 83.2792 -0.0934088 83.7005 0.0401968 83.9614C0.153762 84.1821 4.14189 83.6403 4.68967 83.5601C21.9315 80.9984 45.1922 66.8791 60.1093 56.4785C62.5543 54.7729 68.7402 49.4021 70.8445 48.5928C70.9313 48.5594 72.4544 48.1781 72.067 48.8403L55.6936 71.0192L55.8139 71.6212C59.4813 72.2164 63.4561 71.2132 67.0902 70.0694C84.165 64.6719 98.4073 51.422 113.552 41.7037L143.573 35.9315C143.994 34.9818 142.711 35.2426 142.217 35.2493H142.19ZM91.1325 29.2029C98.4007 21.0564 108.735 14.2342 117.105 7.5524L125.242 2.55612C125.389 2.83035 124.514 3.53264 124.293 3.76004C116.07 12.2878 104.854 19.2706 96.283 27.5643L90.5046 30.1928C90.5246 29.7046 90.872 29.5039 91.1392 29.2029H91.1325ZM88.0262 32.3532C89.2687 31.4636 91.0056 31.1827 92.2882 30.2999C92.4285 30.5808 91.3062 31.5573 91.059 31.7713C88.5406 33.9518 85.7215 35.8312 83.0828 37.8177C83.1028 37.3294 83.4635 37.1355 83.7174 36.8278C84.6259 35.7309 87.0041 33.0889 88.0329 32.3532H88.0262ZM70.4904 47.6096C66.5023 48.1514 62.4607 47.9908 58.4593 47.9775C58.4927 47.4223 58.9536 47.2618 59.3277 47.021C65.674 42.8942 77.2776 36.7074 84.1449 34.119C84.519 33.9785 84.7729 33.6842 85.2338 33.9451C80.6512 39.0751 76.2889 44.1517 70.4838 47.6096H70.4904ZM108.027 44.4393C95.3144 53.6292 80.718 65.1467 66.1015 69.5143C63.1221 70.4039 59.7619 71.26 56.7558 70.8052C62.1668 63.2071 67.3774 55.2946 73.55 48.4457C85.8818 47.0478 98.1067 44.5663 110.372 42.4595C109.603 43.0213 108.755 43.9109 108.02 44.4393H108.027ZM112.296 41.0415C104.48 42.6133 96.6437 44.2453 88.7944 45.4827C84.0514 46.2318 79.2416 47.0009 74.4919 47.2083C75.7612 45.7368 76.9302 44.0112 78.3598 42.7136C83.9245 37.6705 90.8119 33.3297 96.5369 28.3936C110.439 22.5479 125.476 17.1503 140.186 19.5247C137.527 22.5279 134.381 24.9692 131.288 27.4038C125.149 32.2328 118.682 36.6405 112.296 41.0415Z" fill="#2E2E2E"/>
<path d="M122.944 53.0875H125.061V69.1398H122.944V65.9962C121.467 68.3505 119.31 69.5277 116.464 69.5277C114.179 69.5277 112.229 68.7117 110.612 67.0864C108.995 65.4611 108.194 63.4679 108.194 61.1136C108.194 58.7593 109.002 56.7661 110.612 55.1408C112.222 53.5155 114.179 52.6995 116.464 52.6995C119.31 52.6995 121.467 53.8767 122.944 56.231V53.0875ZM112.135 65.6216C113.351 66.8523 114.847 67.4676 116.624 67.4676C118.401 67.4676 119.898 66.8523 121.113 65.6216C122.329 64.391 122.944 62.886 122.944 61.1136C122.944 59.3412 122.336 57.8363 121.113 56.6056C119.898 55.3749 118.401 54.7596 116.624 54.7596C114.847 54.7596 113.351 55.3749 112.135 56.6056C110.919 57.8363 110.305 59.3412 110.305 61.1136C110.305 62.886 110.913 64.391 112.135 65.6216Z" fill="#2E2E2E"/>
<path d="M137.053 52.6995C138.997 52.6995 140.533 53.2948 141.656 54.4786C142.778 55.6692 143.339 57.2677 143.339 59.281V69.1398H141.221V59.281C141.221 57.8496 140.841 56.7327 140.086 55.9434C139.331 55.1542 138.255 54.7529 136.866 54.7529C135.329 54.7529 134.073 55.2411 133.112 56.211C132.15 57.1875 131.669 58.6857 131.669 60.719V69.1331H129.551V53.0808H131.669V55.5822C132.864 53.656 134.661 52.6928 137.053 52.6928V52.6995Z" fill="#2E2E2E"/>
<path d="M161.228 46.6665H163.346V69.1398H161.228V65.9962C159.752 68.3505 157.594 69.5277 154.748 69.5277C152.464 69.5277 150.513 68.7117 148.896 67.0864C147.28 65.4611 146.478 63.4679 146.478 61.1136C146.478 58.7593 147.286 56.7661 148.896 55.1408C150.506 53.5155 152.464 52.6995 154.748 52.6995C157.594 52.6995 159.752 53.8767 161.228 56.231V46.6665ZM150.426 65.6216C151.642 66.8523 153.138 67.4676 154.915 67.4676C156.692 67.4676 158.189 66.8523 159.404 65.6216C160.62 64.391 161.235 62.886 161.235 61.1136C161.235 59.3412 160.627 57.8363 159.404 56.6056C158.189 55.3749 156.692 54.7596 154.915 54.7596C153.138 54.7596 151.642 55.3749 150.426 56.6056C149.21 57.8363 148.596 59.3412 148.596 61.1136C148.596 62.886 149.204 64.391 150.426 65.6216Z" fill="#2E2E2E"/>
<path d="M181.29 67.0998C179.653 68.7184 177.662 69.521 175.311 69.521C172.959 69.521 170.969 68.7117 169.332 67.0998C167.695 65.4879 166.88 63.488 166.88 61.1136C166.88 58.7392 167.695 56.7393 169.332 55.1274C170.969 53.5088 172.959 52.7062 175.311 52.7062C177.662 52.7062 179.653 53.5155 181.29 55.1274C182.926 56.746 183.741 58.7392 183.741 61.1136C183.741 63.488 182.926 65.4879 181.29 67.0998ZM170.815 65.6216C172.031 66.8523 173.527 67.4676 175.304 67.4676C177.081 67.4676 178.577 66.8523 179.793 65.6216C181.009 64.3909 181.624 62.886 181.624 61.1136C181.624 59.3412 181.016 57.8362 179.793 56.6056C178.577 55.3749 177.081 54.7596 175.304 54.7596C173.527 54.7596 172.031 55.3749 170.815 56.6056C169.599 57.8362 168.985 59.3412 168.985 61.1136C168.985 62.886 169.592 64.3909 170.815 65.6216Z" fill="#2E2E2E"/>
<path d="M187.555 70.4239V53.0874H189.673V70.4239C189.673 72.3502 189.172 73.7949 188.163 74.7581C187.161 75.7212 185.738 76.1158 183.901 75.9486V73.8952C185.164 74.0223 186.086 73.8217 186.674 73.2866C187.261 72.7515 187.555 71.8018 187.555 70.4306V70.4239ZM187.522 47.0545C187.823 46.7535 188.183 46.6063 188.611 46.6063C189.038 46.6063 189.399 46.7535 189.7 47.0545C190 47.3554 190.147 47.7166 190.147 48.1447C190.147 48.5727 190 48.9339 189.7 49.2349C189.399 49.5359 189.038 49.683 188.611 49.683C188.183 49.683 187.823 49.5359 187.522 49.2349C187.221 48.9339 187.074 48.5727 187.074 48.1447C187.074 47.7166 187.221 47.3554 187.522 47.0545Z" fill="#2E2E2E"/>
<path d="M207.95 53.0875H210.068V69.1398H207.95V65.9962C206.474 68.3505 204.316 69.5277 201.47 69.5277C199.185 69.5277 197.235 68.7117 195.618 67.0864C194.001 65.4611 193.2 63.4679 193.2 61.1136C193.2 58.7593 194.008 56.7661 195.618 55.1408C197.228 53.5155 199.185 52.6995 201.47 52.6995C204.316 52.6995 206.474 53.8767 207.95 56.231V53.0875ZM197.141 65.6216C198.357 66.8523 199.853 67.4676 201.63 67.4676C203.407 67.4676 204.904 66.8523 206.12 65.6216C207.335 64.391 207.95 62.886 207.95 61.1136C207.95 59.3412 207.342 57.8363 206.12 56.6056C204.904 55.3749 203.407 54.7596 201.63 54.7596C199.853 54.7596 198.357 55.3749 197.141 56.6056C195.925 57.8363 195.311 59.3412 195.311 61.1136C195.311 62.886 195.919 64.391 197.141 65.6216Z" fill="#2E2E2E"/>
<path d="M216.221 57.2477C216.221 57.9633 216.548 58.5319 217.196 58.9532C217.844 59.3746 218.632 59.7157 219.547 59.9766C220.469 60.2374 221.384 60.5049 222.306 60.7658C223.228 61.0266 224.003 61.5015 224.638 62.1904C225.272 62.8794 225.586 63.7823 225.586 64.8926C225.586 66.2637 225.045 67.374 223.97 68.2301C222.888 69.0862 221.498 69.5143 219.788 69.5143C218.251 69.5143 216.942 69.1732 215.86 68.4843C214.778 67.7954 214.03 66.9125 213.602 65.8223L215.399 64.7655C215.7 65.6016 216.234 66.257 217.016 66.7386C217.797 67.2202 218.719 67.461 219.788 67.461C220.857 67.461 221.712 67.2536 222.42 66.8322C223.128 66.4175 223.475 65.7688 223.475 64.8926C223.475 64.1635 223.155 63.5883 222.513 63.1603C221.872 62.7322 221.091 62.3844 220.175 62.1236C219.253 61.8627 218.338 61.5952 217.416 61.3343C216.495 61.0735 215.72 60.6053 215.078 59.9297C214.437 59.2542 214.116 58.3713 214.116 57.2811C214.116 55.9769 214.637 54.8866 215.673 54.0038C216.708 53.1276 218.018 52.6861 219.601 52.6861C220.904 52.6861 222.046 52.9804 223.035 53.569C224.017 54.1576 224.745 54.9535 225.212 55.9635L223.449 56.9935C222.827 55.4953 221.545 54.7462 219.601 54.7462C218.679 54.7462 217.891 54.9602 217.229 55.395C216.568 55.823 216.234 56.4451 216.234 57.241L216.221 57.2477Z" fill="#2E2E2E"/>
<path d="M231.485 68.9458C231.144 69.2869 230.724 69.4608 230.236 69.4608C229.748 69.4608 229.327 69.2869 228.987 68.9458C228.646 68.6047 228.472 68.1833 228.472 67.695C228.472 67.2068 228.646 66.7854 228.987 66.4443C229.327 66.1032 229.742 65.9293 230.236 65.9293C230.73 65.9293 231.144 66.1032 231.485 66.4443C231.826 66.7854 232 67.2068 232 67.695C232 68.1833 231.826 68.6047 231.485 68.9458Z" fill="#2E2E2E"/>
</svg>
