<?xml version="1.0" encoding="UTF-8"?>
<svg id="Layer_2" data-name="Layer 2" xmlns="http://www.w3.org/2000/svg" viewBox="0 0 334.06 93.55">
  <g id="Layer_1-2" data-name="Layer 1">
    <g id="vision">
      <path d="M288.26,18.41c1.97,10.82.78,21.73,1.19,32.67.09,2.35,1.23,4.54,1.32,7.3.25,7.03.29,15.23-.06,22.24-.1,2.01-1.08,3.46-2.46,1.83-.3-11.68.39-23.45.03-35.13-.22-7.35-.19-23.35-1.26-29.53-.39-2.26-2.39-2.81-2.49-4.91l2.21-.83.89-3.48c3.2,1.83.13,4.37,1.15,6.14.71,1.22,2.74,2.28,3.73,3.76,8.84,13.16,12.21,31.44,19.85,45.42,1.63,2.98,14.13,20.96,15.92,21.02,1.86-1.26,1.73-2.28,1.89-4.25,1.1-13.65.57-29.25,1.15-43.18.42-10.08.13-10.24-1.14-19.73-.59-4.45.29-9.56-.06-14.1,7.12,3.57,2.12,6.39,1.45,9.41-.24,1.09,2.08,7.97,2.3,10.85.75,9.75-1.04,19.19-1.32,28.34-.27,8.8.81,18.58.07,27.16-.14,1.65-1.6,9.24-3.11,9.19-10.41-9.23-17.8-20.57-23.4-33.24s-7.73-27.77-17.86-36.94Z"/>
      <path d="M267.4,43.66c-.36-7.99-2.02-17.82-5.99-24.89-4.93-8.75-17.29-18.32-27.63-17.36-8.73.81-11.96,4.1-15.12,12.08-5.43,13.75-5.95,37.01-.34,50.81,4.42,10.9,11.06,12.18,22.44,10.69,11.75-1.54,27.17-19.54,26.64-31.33ZM262.16,54.51c-4.61,8.37-12.48,17.12-22.53,18.11-3.35.34-12.87.48-15.14-1.56-3.26-2.94-6.78-14.35-7.59-18.88-1.09-6.1-.54-9.03-.05-14.65.43-4.93-1.97-7.36,3.43-9.82-2.01-2.33-.08-13.87,1.38-14.91,2.26-1.62,11.12,2.06,14.85.67l-13.54-4.3c9.1-11.72,25.73-3.14,33.26,6.16,7.84,9.69,12.07,28.05,5.93,39.18Z"/>
      <path d="M18.48,84.9c1.87.31,1.41-2.25,1.8-3.73,4.8-18.04,10.26-36.85,13.86-55.11,1.09-5.53,1.62-11.06,2.46-16.6.15-1-1.54-2.7,1.58-3.38.13,16.61-4.86,33.45-8.95,49.54-2.35,9.24-4.73,20.46-7.67,29.28-.28.84-2.62,7.26-4.32,4.92-.76-12.8-6.21-23.87-8.53-36.43-1.21-6.57-1.46-14.17-2.66-20.74C4.27,22.92.84,13.46,0,3.63c1.61.72,4.35,5.74,4.71,7.07s-.59,2.75-.35,4.1c2.31,13.19,4.3,26.66,6.85,39.8,2.05,10.57,6.48,19.76,7.26,30.3Z"/>
      <path d="M128.1,11.03l-2.45-.61c3.28-5.66.59-10.04-5.84-7.07-4.47,2.07-11.99,13.66-13.57,18.45-2.56,7.78-3.09,16.57,2.15,23.08,7.3,9.07,26.49,14.1,37.35,20.54,14.82,8.79,13.63,11.78-.78,19.72-3.92,2.16-18.77,9.33-22.29,8.31-2.04-.59-2.21-3.05-1.96-4.85l3.15,2.53c3.46.45,18.07-6.7,21.89-8.91,2.21-1.27,8.33-4.27,8.29-6.56-1.07-3.63-5.24-5.89-8.3-7.78-7.64-4.74-15.51-7.4-23.42-11.06-8.79-4.07-20.94-11.99-20.14-23.04s6.23-25.97,16.13-31.94c8.14-4.91,13.36.6,9.79,9.18Z"/>
      <path d="M66.51,7.33c1.11,13.38,4.31,26.72,6.09,40.1.79,5.93,1.35,12.28,1.25,18.29l2.61,1.42-3.18,9.16-1.93-22.7c-1.61-14.37-5.34-29.1-7.25-43.25-.36-2.68-.56-3.47,2.4-3.01Z"/>
      <path d="M186.01,62.13c.02.31,1.13,1.24,1.28,2.52.23,1.99-1.31,3.56-1.29,5.48-2.3-.51-2.32-2.35-2.51-4.25-.83-8.13,1.14-15.89,1.35-23.4.31-11.17.33-23.41-.02-34.57-.09-2.85-2.88-5.4,1.19-6.74-.4,1.96.66,3.85.66,5.61,0,.56-.65.94-.65,1.17,0,17.37-1.24,37.16,0,54.18Z"/>
    </g>
  </g>
</svg>